<svg width="12" height="12" viewBox="0 0 12 12" fill="none" xmlns="http://www.w3.org/2000/svg">
<rect x="0.5" y="0.5" width="11" height="11" rx="5.5" fill="#3392FF"/>
<path d="M9.29726 4.01742C9.15358 4.06257 9.14811 4.06668 7.31997 5.89482L5.52056 7.69286L4.70638 6.87868C3.94967 6.12471 3.88536 6.06313 3.80052 6.02345C3.58295 5.92219 3.3517 5.95366 3.17928 6.10966C3.04245 6.23281 2.9754 6.42985 3.00824 6.60774C3.04245 6.7911 3.02055 6.76784 4.1563 7.89948C5.14973 8.89018 5.21131 8.94902 5.29478 8.98597C5.40151 9.03249 5.54793 9.04618 5.64645 9.02018C5.81339 8.97502 5.74224 9.04207 7.87553 6.90878C10.0841 4.6975 9.95818 4.83297 9.99239 4.63729C10.0389 4.36498 9.86787 4.10089 9.59283 4.01742C9.5162 3.99416 9.37115 3.99416 9.29726 4.01742Z" fill="white"/>
<rect x="0.5" y="0.5" width="11" height="11" rx="5.5" stroke="#3392FF"/>
</svg>
