<svg width="31" height="16" viewBox="0 0 31 16" fill="none" xmlns="http://www.w3.org/2000/svg">
<path d="M1 7C0.447715 7 0 7.44772 0 8C0 8.55228 0.447715 9 1 9L1 7ZM30.7071 8.70711C31.0976 8.31658 31.0976 7.68342 30.7071 7.29289L24.3431 0.928932C23.9526 0.538408 23.3195 0.538408 22.9289 0.928932C22.5384 1.31946 22.5384 1.95262 22.9289 2.34315L28.5858 8L22.9289 13.6569C22.5384 14.0474 22.5384 14.6805 22.9289 15.0711C23.3195 15.4616 23.9526 15.4616 24.3431 15.0711L30.7071 8.70711ZM1 9L30 9V7L1 7L1 9Z" fill="#3392FF"/>
</svg>
