<svg width="21" height="18" viewBox="0 0 21 18" fill="none" xmlns="http://www.w3.org/2000/svg">
<path d="M4.6 16.5C4.6 16.859 4.89101 17.15 5.25 17.15C5.60899 17.15 5.9 16.859 5.9 16.5H4.6ZM5.70962 1.16538C5.45578 0.911539 5.04422 0.911539 4.79038 1.16538L0.653806 5.30195C0.399965 5.55579 0.399965 5.96735 0.653806 6.22119C0.907647 6.47503 1.3192 6.47503 1.57304 6.22119L5.25 2.54424L8.92696 6.22119C9.1808 6.47503 9.59235 6.47503 9.84619 6.22119C10.1 5.96735 10.1 5.55579 9.84619 5.30195L5.70962 1.16538ZM5.9 16.5L5.9 1.625H4.6L4.6 16.5H5.9Z" fill="#3392FF"/>
<path d="M16.4 1.625C16.4 1.26601 16.109 0.975 15.75 0.975C15.391 0.975 15.1 1.26601 15.1 1.625L16.4 1.625ZM15.2904 16.9596C15.5442 17.2135 15.9558 17.2135 16.2096 16.9596L20.3462 12.823C20.6 12.5692 20.6 12.1576 20.3462 11.9038C20.0924 11.65 19.6808 11.65 19.427 11.9038L15.75 15.5808L12.073 11.9038C11.8192 11.65 11.4076 11.65 11.1538 11.9038C10.9 12.1576 10.9 12.5692 11.1538 12.823L15.2904 16.9596ZM15.1 1.625L15.1 16.5H16.4L16.4 1.625L15.1 1.625Z" fill="#3392FF"/>
</svg>
