<svg width="20" height="20" viewBox="0 0 20 20" fill="none" xmlns="http://www.w3.org/2000/svg">
<path d="M8.93271 0.0275459C6.90679 0.260447 5.01534 1.08008 3.46452 2.4103C1.67616 3.93759 0.506322 6.04265 0.102931 8.4478C0.00432471 9.03901 -0.0315323 10.2796 0.0312174 10.9336C0.277734 13.4865 1.51032 15.8827 3.4197 17.5264C5.51733 19.3359 8.25143 20.2182 10.9541 19.954C14.0603 19.6539 16.8795 17.9027 18.5245 15.2512C19.4478 13.7642 19.9811 11.9771 19.9991 10.32C20.0036 9.76906 19.9946 9.6974 19.9094 9.58543C19.7346 9.34805 19.5912 9.27639 19.3088 9.27639C19.0265 9.27639 18.883 9.34805 18.7082 9.58095C18.6365 9.67948 18.6141 9.80489 18.5827 10.3155C18.5065 11.6815 18.2331 12.752 17.6773 13.8538C17.2515 14.7003 16.8392 15.2915 16.1982 15.9633C13.9303 18.3326 10.5687 19.2194 7.45361 18.2789C5.13187 17.5757 3.24938 15.9768 2.18264 13.8C1.02625 11.4397 1.00832 8.68966 2.14678 6.3069C3.2942 3.88832 5.48148 2.155 8.10352 1.57723C10.6225 1.02185 13.3073 1.64441 15.3332 3.2568L15.638 3.49866L14.8312 3.52106C14.1096 3.53897 14.0154 3.55241 13.9034 3.6375C13.6658 3.81218 13.5941 3.9555 13.5941 4.23767C13.5941 4.51984 13.6658 4.66316 13.9034 4.83784C14.0244 4.92742 14.0782 4.93189 15.7231 4.93189C17.3681 4.93189 17.4219 4.92742 17.5429 4.83784C17.6101 4.78857 17.7087 4.69004 17.758 4.62285C17.8477 4.50192 17.8521 4.44818 17.8521 2.80444C17.8521 1.1607 17.8477 1.10695 17.758 0.986021C17.5832 0.748642 17.4398 0.676981 17.1574 0.676981C16.875 0.676981 16.7316 0.748642 16.5568 0.986021C16.4761 1.09351 16.4627 1.18757 16.4492 1.70712L16.4313 2.30728L16.0683 2.02512C14.7864 1.03977 13.1818 0.354502 11.5279 0.09025C11.0035 0.0096302 9.45264 -0.0306797 8.93271 0.0275459Z" fill="#3392FF"/>
<path d="M6.52583 6.7906C6.01935 6.8757 5.33807 7.1713 5.01536 7.44451C4.6792 7.7222 4.86296 8.4433 5.26635 8.44777C5.33359 8.44777 5.63389 8.32684 5.92971 8.17904C6.73201 7.77147 7.20711 7.72668 7.55672 8.02228C7.74945 8.18352 7.80772 8.3582 7.77634 8.68515C7.72704 9.20918 7.55224 9.45552 6.22553 10.8529C5.57562 11.5382 5.01536 12.1607 4.98398 12.2414C4.88986 12.4653 4.9033 12.7609 5.01984 12.9042C5.20809 13.1461 5.25739 13.1506 7.21608 13.1506C8.89239 13.1506 9.03582 13.1416 9.21062 13.0655C9.31371 13.0162 9.4168 12.9401 9.44369 12.8908C9.50644 12.7743 9.50644 12.425 9.44369 12.2862C9.34509 12.0667 9.28234 12.0533 7.99148 12.0309L6.78131 12.0085L7.58809 11.1664C8.71311 9.9885 8.96859 9.62123 9.1165 9.00315C9.30923 8.188 8.99548 7.4042 8.33213 7.04589C7.86599 6.7906 7.13988 6.68758 6.52583 6.7906Z" fill="#3392FF"/>
<path d="M13.1461 6.85337C13.0744 6.88472 12.9713 6.96086 12.9176 7.01908C12.7428 7.21615 10.1207 10.9963 10.0759 11.1128C10.049 11.1799 10.0311 11.3188 10.0311 11.4308C10.0311 11.5965 10.058 11.6592 10.1835 11.798L10.3359 11.9637L11.5729 11.9772L12.81 11.9906V12.3489C12.81 12.7834 12.8862 12.9715 13.1148 13.1148C13.3254 13.2447 13.6571 13.2492 13.8319 13.1238C14.0829 12.9312 14.1546 12.7699 14.1546 12.3624V11.9861H14.4235C14.8987 11.9861 15.1407 11.8025 15.1407 11.4397C15.1407 11.0859 14.8897 10.9112 14.3922 10.9112H14.1546V9.07936C14.1546 7.25198 14.1546 7.25198 14.0515 7.0997C13.8678 6.82201 13.4644 6.71452 13.1461 6.85337ZM12.81 9.94826V10.9112H12.1377C11.7701 10.9112 11.4653 10.8978 11.4653 10.8843C11.4653 10.853 12.7652 8.9853 12.7921 8.9853C12.801 8.9853 12.81 9.41975 12.81 9.94826Z" fill="#3392FF"/>
</svg>
