<svg width="25" height="29" viewBox="0 0 25 29" fill="none" xmlns="http://www.w3.org/2000/svg">
<path d="M23.447 17.7034C22.9539 17.1511 22.1716 16.5493 21.6403 16.3111C21.4761 16.2385 20.2711 15.8585 18.9563 15.462L16.5678 14.745L13.3666 12.0139C11.6079 10.5131 10.1067 9.24341 10.03 9.19566C9.63444 8.95579 9.15741 9.37424 9.27666 9.85582C9.29992 9.96028 9.66005 10.5622 10.2651 11.5272C10.7843 12.3582 11.2115 13.0549 11.2096 13.082C11.2081 13.1023 10.3621 12.8703 9.32509 12.553L7.44356 11.9834L7.37965 11.7593C7.34562 11.6334 7.13087 10.7679 6.89935 9.83608C6.46105 8.05653 6.28082 7.4808 6.01645 7.00341C5.68131 6.39687 5.24755 6.17409 4.82527 6.3892C4.61107 6.49648 4.37237 6.77225 4.2538 7.04843C4.17173 7.24594 3.12182 12.6479 3.08579 13.0611C3.06777 13.2677 3.08553 13.3204 3.20382 13.4743C3.33338 13.6428 3.39595 13.6722 4.06815 13.8786C4.68904 14.0702 5.10406 14.2538 6.9912 15.1721C8.20271 15.7608 9.19305 16.2548 9.19207 16.2683C9.19109 16.2819 8.70415 16.5391 8.10588 16.8444C7.50762 17.1497 6.97818 17.4406 6.92196 17.4936C6.77977 17.6278 6.7097 17.9151 6.76896 18.1183C6.83287 18.3424 7.03407 18.5002 7.26112 18.5135C7.35346 18.5149 8.45113 18.3767 9.69919 18.2042C11.8404 17.9094 12.0544 17.8909 13.1723 17.8979L14.3704 17.9052L17.458 18.8412C19.1526 19.3533 21.1574 19.9646 21.9083 20.1916C22.6619 20.4223 23.3685 20.6215 23.4754 20.6344C23.7934 20.6694 24.024 20.5909 24.1956 20.3911C24.499 20.0289 24.5207 19.6861 24.2865 19.0476C24.1888 18.7795 23.7978 18.0929 23.6466 17.9259C23.6123 17.8887 23.524 17.7888 23.447 17.7034Z" fill="#3392FF"/>
</svg>
