<svg width="24" height="15" viewBox="0 0 24 15" fill="none" xmlns="http://www.w3.org/2000/svg">
<path d="M20.7017 0.0262051C19.9736 0.0839424 19.0148 0.353382 18.4857 0.646879C18.3229 0.738297 17.2375 1.50813 16.0661 2.35975L13.9406 3.90903L9.82514 4.83763C7.56391 5.34764 5.64187 5.7903 5.55594 5.82398C5.11726 6.002 5.09465 6.6756 5.51976 6.8873C5.61021 6.93542 6.28406 7.02202 7.38301 7.1375C8.32821 7.23854 9.11512 7.32995 9.13321 7.3492C9.14678 7.36363 8.40961 7.92657 7.48251 8.59536L5.80467 9.81265L5.60116 9.72123C5.4881 9.66831 4.72381 9.2882 3.90072 8.87923C2.33142 8.09497 1.79777 7.87364 1.27769 7.78704C0.617408 7.67638 0.165162 7.8977 0.0340101 8.39328C-0.0338269 8.64347 0.00235284 9.02358 0.119937 9.30264C0.205864 9.49991 3.36254 13.8879 3.63389 14.1862C3.76957 14.3354 3.81931 14.3546 4.00926 14.3546C4.21729 14.3546 4.2806 14.321 4.88209 13.8879C5.43835 13.4886 5.8499 13.2576 7.78099 12.2617C9.02015 11.6217 10.0422 11.1069 10.0513 11.1165C10.0603 11.1262 9.91559 11.7035 9.73017 12.406C9.54475 13.1085 9.39551 13.7436 9.39551 13.8254C9.39551 14.0323 9.5538 14.2777 9.73922 14.3594C9.94273 14.4509 10.1915 14.3835 10.3543 14.2007C10.4176 14.1237 11.0598 13.1085 11.7788 11.9441C13.0135 9.94737 13.1446 9.75491 13.9044 8.81668L14.7185 7.8111L17.4726 5.81435C18.9831 4.71735 20.774 3.42307 21.4434 2.93712C22.1172 2.45117 22.7368 1.98446 22.8182 1.90266C23.0579 1.65728 23.1574 1.4119 23.1302 1.13764C23.076 0.646879 22.8453 0.406308 22.2303 0.189794C21.9725 0.0983763 21.2172 -0.0170975 20.9956 0.00214767C20.9459 0.00695896 20.8147 0.0165825 20.7017 0.0262051Z" fill="#3392FF"/>
</svg>
