<svg width="21" height="18" viewBox="0 0 21 18" fill="none" xmlns="http://www.w3.org/2000/svg">
<g clip-path="url(#clip0_58_1457)">
<path fill-rule="evenodd" clip-rule="evenodd" d="M1.48015 7.68463C1.21995 9.44414 1.48694 11.2413 2.2474 12.8492C3.00786 14.4571 4.22768 15.8036 5.75286 16.7187C7.27804 17.6338 9.04017 18.0764 10.8167 17.9908C12.5933 17.9051 14.3047 17.295 15.7348 16.2374C16.5157 16.6343 17.4181 16.7203 18.26 16.4782C19.1019 16.236 19.8207 15.6836 20.2714 14.9324C20.7221 14.1812 20.8712 13.287 20.6886 12.4302C20.5061 11.5734 20.0054 10.8177 19.2877 10.3154C19.5476 8.55611 19.2805 6.75925 18.5201 5.15164C17.7597 3.54403 16.54 2.19774 15.0151 1.2827C13.4902 0.367669 11.7284 -0.0750864 9.95207 0.0103286C8.17574 0.0957436 6.46453 0.7055 5.03445 1.76263C4.25349 1.36572 3.35107 1.27968 2.50917 1.52186C1.66727 1.76405 0.948513 2.31644 0.49782 3.06765C0.047126 3.81887 -0.101975 4.71303 0.0805799 5.56983C0.263135 6.42664 0.763767 7.18237 1.48153 7.68463H1.48015ZM2.80661 8.2454C2.66332 9.68186 2.93126 11.1295 3.57921 12.4195C4.22717 13.7095 5.22843 14.7887 6.4663 15.5314C7.70417 16.2742 9.12764 16.6497 10.5708 16.6144C12.014 16.5791 13.4173 16.1343 14.6174 15.3319C14.1705 14.7801 13.9041 14.1042 13.8544 13.3959C13.8046 12.6876 13.9739 11.9811 14.3392 11.3723C14.7046 10.7634 15.2483 10.2816 15.8967 9.99228C16.5451 9.70291 17.2668 9.61994 17.964 9.75463C18.1073 8.31817 17.8393 6.87057 17.1914 5.58056C16.5434 4.29056 15.5422 3.2113 14.3043 2.46857C13.0664 1.72585 11.643 1.35027 10.1998 1.38561C8.75664 1.42095 7.35326 1.86575 6.15322 2.66816C6.6001 3.21996 6.86647 3.89583 6.91623 4.60413C6.96598 5.31243 6.79672 6.01891 6.43138 6.62775C6.06604 7.2366 5.5223 7.71837 4.87389 8.00774C4.22548 8.29711 3.50377 8.38008 2.80661 8.2454ZM17.3077 15.2308C17.8585 15.2308 18.3868 15.012 18.7763 14.6225C19.1658 14.233 19.3846 13.7047 19.3846 13.1539C19.3846 12.603 19.1658 12.0747 18.7763 11.6853C18.3868 11.2958 17.8585 11.0769 17.3077 11.0769C16.7569 11.0769 16.2286 11.2958 15.8391 11.6853C15.4496 12.0747 15.2308 12.603 15.2308 13.1539C15.2308 13.7047 15.4496 14.233 15.8391 14.6225C16.2286 15.012 16.7569 15.2308 17.3077 15.2308ZM3.46153 6.92309C3.73428 6.92309 4.00435 6.86937 4.25634 6.76499C4.50832 6.66062 4.73728 6.50763 4.93014 6.31477C5.123 6.12191 5.27598 5.89295 5.38036 5.64097C5.48473 5.38899 5.53845 5.11891 5.53845 4.84616C5.53845 4.57342 5.48473 4.30334 5.38036 4.05136C5.27598 3.79938 5.123 3.57042 4.93014 3.37756C4.73728 3.1847 4.50832 3.03171 4.25634 2.92734C4.00435 2.82296 3.73428 2.76924 3.46153 2.76924C2.9107 2.76924 2.38242 2.98806 1.99292 3.37756C1.60343 3.76706 1.38461 4.29533 1.38461 4.84616C1.38461 5.397 1.60343 5.92527 1.99292 6.31477C2.38242 6.70427 2.9107 6.92309 3.46153 6.92309Z" fill="#3392FF"/>
</g>
<defs>
<clipPath id="clip0_58_1457">
<rect width="20.7692" height="18" fill="white"/>
</clipPath>
</defs>
</svg>
