<svg width="12" height="12" viewBox="0 0 12 12" fill="none" xmlns="http://www.w3.org/2000/svg">
<g clip-path="url(#clip0_22_498)">
<path opacity="0.985" fill-rule="evenodd" clip-rule="evenodd" d="M7.53515 -0.0117188C8.08201 -0.0117188 8.6289 -0.0117188 9.17577 -0.0117188C9.49279 0.0865132 9.71544 0.289638 9.84374 0.597656C9.87789 1.11985 9.88961 1.64329 9.8789 2.16797C9.64452 2.16797 9.41015 2.16797 9.17577 2.16797C9.18632 1.71356 9.1746 1.26044 9.14062 0.808594C9.09932 0.743719 9.04073 0.708562 8.96483 0.703125C8.55859 0.687499 8.15233 0.687499 7.74608 0.703125C7.67019 0.708562 7.6116 0.743719 7.5703 0.808594C7.53632 1.26044 7.5246 1.71356 7.53515 2.16797C7.30077 2.16797 7.0664 2.16797 6.83202 2.16797C6.82131 1.64329 6.83303 1.11985 6.86718 0.597656C6.99639 0.289411 7.21905 0.0862852 7.53515 -0.0117188Z" fill="#3392FF"/>
<path opacity="0.995" fill-rule="evenodd" clip-rule="evenodd" d="M11.9883 3.48047C11.9883 5.8789 11.9883 8.27736 11.9883 10.6758C11.8779 11.0204 11.6436 11.2235 11.2852 11.2852C11.2891 11.4494 11.2852 11.6135 11.2734 11.7773C11.2339 11.8754 11.1675 11.9457 11.0742 11.9883C10.9805 11.9883 10.8867 11.9883 10.793 11.9883C10.6997 11.9457 10.6333 11.8754 10.5938 11.7773C10.582 11.6135 10.5781 11.4494 10.582 11.2852C9.09767 11.2852 7.61328 11.2852 6.12891 11.2852C6.1328 11.4494 6.12891 11.6135 6.11719 11.7773C6.07763 11.8754 6.01123 11.9457 5.91797 11.9883C5.82422 11.9883 5.73047 11.9883 5.63672 11.9883C5.54347 11.9457 5.47707 11.8754 5.43751 11.7773C5.42579 11.6135 5.4219 11.4494 5.42579 11.2852C5.06778 11.228 4.83732 11.0249 4.73438 10.6758C4.71875 8.27736 4.71875 5.8789 4.73438 3.48047C4.83912 3.13355 5.06958 2.92653 5.42579 2.85938C7.3789 2.84375 9.33204 2.84375 11.2852 2.85938C11.6418 2.93098 11.8761 3.13801 11.9883 3.48047ZM6.41016 3.8086C6.65133 3.80365 6.78804 3.92084 6.82032 4.16016C6.83595 6.10547 6.83595 8.05079 6.82032 9.9961C6.73681 10.3249 6.54542 10.4069 6.2461 10.2422C6.18219 10.1729 6.14703 10.0909 6.14063 9.9961C6.125 8.05079 6.125 6.10547 6.14063 4.16016C6.15734 3.98368 6.24718 3.86649 6.41016 3.8086ZM10.1602 3.8086C10.4013 3.80365 10.538 3.92084 10.5703 4.16016C10.586 6.10547 10.586 8.05079 10.5703 9.9961C10.4868 10.3249 10.2954 10.4069 9.9961 10.2422C9.93218 10.1729 9.89703 10.0909 9.89063 9.9961C9.875 8.05079 9.875 6.10547 9.89063 4.16016C9.90734 3.98368 9.99718 3.86649 10.1602 3.8086Z" fill="#3392FF"/>
<path opacity="0.956" fill-rule="evenodd" clip-rule="evenodd" d="M3.33936 3.0117C3.62103 3.00392 3.90228 3.01173 4.18311 3.03514C4.08366 3.25112 4.02898 3.47769 4.01905 3.71483C3.82421 3.73433 3.62888 3.74605 3.43311 3.74998C3.33488 3.77785 3.28412 3.84427 3.28077 3.9492C3.26905 4.13654 3.26516 4.32404 3.26905 4.5117C3.03467 4.5117 2.8003 4.5117 2.56592 4.5117C2.56201 4.24597 2.56592 3.98033 2.57764 3.71483C2.6949 3.32787 2.9488 3.0935 3.33936 3.0117Z" fill="#3392FF"/>
<path opacity="0.995" fill-rule="evenodd" clip-rule="evenodd" d="M1.18359 11.9883C1.08984 11.9883 0.996094 11.9883 0.902344 11.9883C0.809091 11.9457 0.742683 11.8754 0.703125 11.7773C0.691416 11.6135 0.687509 11.4494 0.691406 11.2852C0.332995 11.2235 0.0986203 11.0204 -0.0117188 10.6758C-0.0117188 9.0586 -0.0117188 7.44141 -0.0117188 5.82422C0.0771687 5.49708 0.288105 5.29006 0.621094 5.20313C1.75388 5.19141 2.8867 5.1875 4.01953 5.19141C4.01562 6.94925 4.01953 8.70706 4.03125 10.4648C4.03545 10.7592 4.11748 11.0288 4.27734 11.2734C3.31643 11.2852 2.35549 11.2891 1.39453 11.2852C1.39843 11.4494 1.39452 11.6135 1.38281 11.7773C1.34325 11.8754 1.27685 11.9457 1.18359 11.9883ZM1.62891 6.15235C1.88489 6.12181 2.03723 6.23119 2.08594 6.48047C2.10156 7.65235 2.10156 8.82422 2.08594 9.9961C2.00244 10.3249 1.81103 10.4069 1.51172 10.2422C1.4478 10.1729 1.41264 10.0909 1.40625 9.9961C1.39062 8.82422 1.39062 7.65235 1.40625 6.48047C1.42874 6.33335 1.50295 6.22397 1.62891 6.15235Z" fill="#3392FF"/>
</g>
<defs>
<clipPath id="clip0_22_498">
<rect width="12" height="12" fill="white"/>
</clipPath>
</defs>
</svg>
