<svg width="14" height="15" viewBox="0 0 14 15" fill="none" xmlns="http://www.w3.org/2000/svg">
<path fill-rule="evenodd" clip-rule="evenodd" d="M0.783206 2.21429C0.782184 2.21442 0.781003 2.21461 0.779697 2.21485C0.778631 2.22357 0.777778 2.23518 0.777778 2.25L0.777777 14.2495C0.777786 14.2495 0.777895 14.253 0.778829 14.2594C0.779932 14.267 0.781796 14.2759 0.784517 14.2851C0.784457 14.2849 0.784577 14.2853 0.784517 14.2851L12.8333 14.2857C12.8802 14.2857 12.9506 14.2808 13.0272 14.2668C13.1045 14.2526 13.1682 14.2326 13.2124 14.2121C13.216 14.2105 13.2192 14.209 13.2222 14.2075V2.25052C13.2222 2.25034 13.2221 2.24683 13.2212 2.24057C13.2201 2.23299 13.2182 2.22407 13.2155 2.21489C13.2154 2.21469 13.2155 2.21509 13.2155 2.21489L0.783206 2.21429ZM12.8333 15C13.2222 15 14 14.85 14 14.25V2.25C14 2 13.8444 1.5 13.2222 1.5H11.6667V0.75C11.6667 0.15 11.1481 0 10.8889 0C10.2667 0 10.1111 0.5 10.1111 0.75V1.5H3.88889V0.75C3.88889 0.15 3.37037 0 3.11111 0C2.48889 0 2.33333 0.5 2.33333 0.75V1.5H0.777778C0.518519 1.5 0 1.65 0 2.25V14.25C0 14.5 0.155556 15 0.777778 15H12.8333Z" fill="#3392FF"/>
<path d="M3.21108 7.75714V5.1H6.1222V7.75714H3.21108Z" fill="#3392FF" stroke="#3392FF" stroke-width="0.2"/>
<path d="M7.87734 7.75714V5.1H10.7885V7.75714H7.87734Z" stroke="#3392FF" stroke-width="0.2"/>
<path d="M3.21108 11.3286V8.67143H6.1222V11.3286H3.21108Z" stroke="#3392FF" stroke-width="0.2"/>
<path fill-rule="evenodd" clip-rule="evenodd" d="M0 2.14285H14V14.2857H0V2.14285ZM1.55556 12.8571V3.57142H12.4444V12.8571H1.55556Z" fill="#3392FF"/>
</svg>
