<svg width="17" height="16" viewBox="0 0 17 16" fill="none" xmlns="http://www.w3.org/2000/svg">
<g clip-path="url(#clip0_80_3224)">
<path fill-rule="evenodd" clip-rule="evenodd" d="M13.698 11.131L10.216 4.31798C10.5818 3.97272 10.8349 3.52516 10.9423 3.03377C11.0497 2.54239 11.0063 2.03005 10.818 1.56368C10.6296 1.09731 10.3049 0.698602 9.88635 0.419663C9.4678 0.140724 8.97485 -0.00547908 8.4719 0.000157027C7.96895 0.00579313 7.4794 0.163006 7.06721 0.451255C6.65502 0.739503 6.33936 1.14538 6.16148 1.61586C5.98359 2.08633 5.95176 2.59952 6.07014 3.08837C6.18851 3.57722 6.45159 4.019 6.825 4.35598L3.29 11.127C2.80876 10.9668 2.2902 10.9569 1.80315 11.0984C1.31611 11.2399 0.883632 11.5262 0.563128 11.9193C0.242623 12.3124 0.0492549 12.7936 0.00869524 13.2992C-0.0318644 13.8047 0.0823029 14.3107 0.33604 14.7498C0.589777 15.189 0.971082 15.5406 1.42933 15.7579C1.88758 15.9753 2.4011 16.0481 2.90172 15.9667C3.40233 15.8854 3.86636 15.6537 4.2322 15.3024C4.59804 14.9511 4.84839 14.4969 4.95 14H12.05C12.1517 14.4974 12.4025 14.9521 12.7689 15.3035C13.1354 15.6549 13.6002 15.8864 14.1014 15.9672C14.6027 16.048 15.1166 15.9743 15.575 15.7558C16.0333 15.5374 16.4142 15.1846 16.6671 14.7443C16.92 14.3041 17.0329 13.7972 16.9907 13.2913C16.9484 12.7853 16.7532 12.3042 16.4309 11.9119C16.1085 11.5196 15.6744 11.2348 15.1862 11.0953C14.698 10.9558 14.1789 10.9682 13.698 11.131ZM8.5 3.99998C8.89782 3.99998 9.27936 3.84194 9.56066 3.56064C9.84196 3.27934 10 2.8978 10 2.49998C10 2.10216 9.84196 1.72062 9.56066 1.43932C9.27936 1.15802 8.89782 0.99998 8.5 0.99998C8.10218 0.99998 7.72064 1.15802 7.43934 1.43932C7.15803 1.72062 7 2.10216 7 2.49998C7 2.8978 7.15803 3.27934 7.43934 3.56064C7.72064 3.84194 8.10218 3.99998 8.5 3.99998ZM2.5 15C2.89782 15 3.27936 14.8419 3.56066 14.5606C3.84196 14.2793 4 13.8978 4 13.5C4 13.1022 3.84196 12.7206 3.56066 12.4393C3.27936 12.158 2.89782 12 2.5 12C2.10217 12 1.72064 12.158 1.43934 12.4393C1.15804 12.7206 1 13.1022 1 13.5C1 13.8978 1.15804 14.2793 1.43934 14.5606C1.72064 14.8419 2.10217 15 2.5 15ZM14.5 15C14.8978 15 15.2794 14.8419 15.5607 14.5606C15.842 14.2793 16 13.8978 16 13.5C16 13.1022 15.842 12.7206 15.5607 12.4393C15.2794 12.158 14.8978 12 14.5 12C14.1022 12 13.7206 12.158 13.4393 12.4393C13.158 12.7206 13 13.1022 13 13.5C13 13.8978 13.158 14.2793 13.4393 14.5606C13.7206 14.8419 14.1022 15 14.5 15ZM12.853 11.62L9.45 4.81198C8.886 5.04467 8.25624 5.06246 7.68 4.86198L4.107 11.584C4.531 11.94 4.836 12.435 4.95 12.999H12.05C12.16 12.453 12.45 11.973 12.853 11.62Z" fill="#3392FF"/>
</g>
<defs>
<clipPath id="clip0_80_3224">
<rect width="17" height="16" fill="white"/>
</clipPath>
</defs>
</svg>
