<svg width="40" height="40" viewBox="0 0 40 40" fill="none" xmlns="http://www.w3.org/2000/svg">
<g clip-path="url(#clip0_62_1439)">
<path d="M18.21 0.164059C15.7413 0.382809 13.1788 1.125 10.9522 2.25781C8.92879 3.29687 7.60066 4.27343 5.89754 5.97656C4.10066 7.76562 3.14754 9.09375 2.06941 11.2891C1.38191 12.6953 1.00691 13.6719 0.655349 15.0469C-0.766526 20.5312 0.210037 26.4375 3.30379 31.0547C4.85847 33.375 6.92097 35.4141 9.21785 36.8828C11.3507 38.2578 13.9991 39.3125 16.3507 39.7187L16.6397 39.7734V31.9922V24.2187H14.2569H11.8741V21.4453V18.6719H14.2569H16.6397V16.5781C16.6397 15.4297 16.6788 14.1016 16.7178 13.6328C17.0382 10.2656 18.8116 8.10937 21.8741 7.36718C22.3585 7.25 22.796 7.22656 24.3741 7.22656C25.4288 7.22656 26.7022 7.25781 27.21 7.28906L28.1241 7.35937V9.85156V12.3437H26.7803C24.0225 12.3516 23.1866 12.5859 22.7413 13.4766C22.4757 14.0156 22.421 14.5312 22.421 16.6484V18.6719H25.2022H27.9835L27.9366 18.9219C27.8897 19.2266 27.2647 24.0312 27.2647 24.1406C27.2647 24.1875 26.3663 24.2266 24.8663 24.2344L22.46 24.2578L22.4366 32.0937L22.421 39.9219L22.7491 39.875C26.3428 39.3594 29.7725 37.8594 32.6163 35.5703C33.5928 34.7812 35.1788 33.1562 35.9053 32.1797C40.4913 26.0937 41.2803 18.1094 37.9678 11.3672C36.8585 9.09375 35.9132 7.78906 34.1007 5.97656C32.3975 4.27343 31.0694 3.29687 29.046 2.25781C25.7335 0.570309 21.9288 -0.164066 18.21 0.164059Z" fill="#333333" fill-opacity="0.75"/>
</g>
<defs>
<clipPath id="clip0_62_1439">
<rect width="40" height="40" fill="white"/>
</clipPath>
</defs>
</svg>
