<svg width="91" height="20" viewBox="0 0 91 20" fill="none" xmlns="http://www.w3.org/2000/svg">
<path d="M30.632 12.944V14.24H28.472V12.944C26.904 12.784 25.6613 12.3093 24.744 11.52C23.8267 10.72 23.368 9.68 23.368 8.4C23.368 7.12 23.8267 6.08533 24.744 5.296C25.6507 4.496 26.8933 4.016 28.472 3.856V2.56H30.632V3.856C32.1787 3.99467 33.4213 4.46933 34.36 5.28C35.288 6.08 35.752 7.12 35.752 8.4C35.752 9.68 35.288 10.72 34.36 11.52C33.4213 12.3307 32.1787 12.8053 30.632 12.944ZM30.632 5.856V10.928C32.5733 10.704 33.544 9.86133 33.544 8.4C33.544 6.928 32.5733 6.08 30.632 5.856ZM25.56 8.4C25.56 9.86133 26.5307 10.6987 28.472 10.912V5.872C26.5307 6.08533 25.56 6.928 25.56 8.4ZM39.0694 10.544L42.8294 6H44.3654V14H42.3494V9.456L38.5894 14H37.0534V6H39.0694V10.544ZM46.7845 6H53.1205V14H51.0565V7.984H48.8485V10.656C48.8485 13.12 47.7232 14.2347 45.4725 14V12.064C45.8992 12.1707 46.2245 12.096 46.4485 11.84C46.6725 11.584 46.7845 11.152 46.7845 10.544V6ZM57.0549 8.56H58.6069C59.5135 8.56 60.2442 8.81067 60.7989 9.312C61.3535 9.80267 61.6309 10.4587 61.6309 11.28C61.6309 12.1013 61.3535 12.7627 60.7989 13.264C60.2442 13.7547 59.5135 14 58.6069 14H54.9909V6H57.0549V8.56ZM57.0549 12.176H58.6229C58.9109 12.176 59.1455 12.096 59.3269 11.936C59.5189 11.7653 59.6149 11.5467 59.6149 11.28C59.6149 11.0133 59.5189 10.7947 59.3269 10.624C59.1455 10.4533 58.9109 10.368 58.6229 10.368H57.0549V12.176ZM61.3006 6H68.3886V7.984H65.8926V14H63.8286V7.984H61.3006V6ZM74.1469 5.776C75.2242 5.776 76.1415 6.18667 76.8989 7.008C77.6669 7.82933 78.0509 8.82667 78.0509 10C78.0509 11.1947 77.6669 12.1973 76.8989 13.008C76.1522 13.8187 75.2349 14.224 74.1469 14.224C73.0269 14.224 72.1629 13.8347 71.5549 13.056V17.2H69.4909V6H71.5549V6.944C72.1629 6.16533 73.0269 5.776 74.1469 5.776ZM72.1789 11.632C72.5949 12.048 73.1229 12.256 73.7629 12.256C74.4029 12.256 74.9309 12.048 75.3469 11.632C75.7735 11.2053 75.9869 10.6613 75.9869 10C75.9869 9.33867 75.7735 8.8 75.3469 8.384C74.9309 7.95733 74.4029 7.744 73.7629 7.744C73.1229 7.744 72.5949 7.95733 72.1789 8.384C71.7629 8.8 71.5549 9.33867 71.5549 10C71.5549 10.6613 71.7629 11.2053 72.1789 11.632ZM81.5705 8.56H83.1225C84.0292 8.56 84.7598 8.81067 85.3145 9.312C85.8692 9.80267 86.1465 10.4587 86.1465 11.28C86.1465 12.1013 85.8692 12.7627 85.3145 13.264C84.7598 13.7547 84.0292 14 83.1225 14H79.5065V6H81.5705V8.56ZM87.0265 14V6H89.0905V14H87.0265ZM81.5705 12.176H83.1385C83.4265 12.176 83.6612 12.096 83.8425 11.936C84.0345 11.7653 84.1305 11.5467 84.1305 11.28C84.1305 11.0133 84.0345 10.7947 83.8425 10.624C83.6612 10.4533 83.4265 10.368 83.1385 10.368H81.5705V12.176Z" fill="white"/>
<g clip-path="url(#clip0_69_2021)">
<path opacity="0.982" fill-rule="evenodd" clip-rule="evenodd" d="M15.9844 4.45313C15.9844 4.58854 15.9844 4.72396 15.9844 4.85938C15.8928 5.08835 15.7262 5.23938 15.4844 5.3125C14.8383 5.31772 14.1925 5.33334 13.5469 5.35938C13.1678 6.40078 12.423 6.94244 11.3125 6.98438C10.2067 6.93085 9.46194 6.38397 9.07812 5.34375C6.21353 5.33334 3.34897 5.32291 0.484375 5.3125C0.242585 5.23938 0.0759181 5.08835 -0.015625 4.85938C-0.015625 4.72396 -0.015625 4.58854 -0.015625 4.45313C0.0620028 4.22451 0.218253 4.07347 0.453125 4C3.32819 3.99479 6.20319 3.97917 9.07812 3.95313C9.62638 2.63046 10.6055 2.11484 12.0156 2.40625C12.7966 2.67156 13.307 3.1976 13.5469 3.98438C14.2032 3.97917 14.8595 3.98438 15.5156 4C15.7505 4.07347 15.9067 4.22451 15.9844 4.45313ZM11.1094 3.67188C11.7058 3.62821 12.0964 3.88863 12.2812 4.45313C12.3449 4.97211 12.1418 5.34191 11.6719 5.5625C11.0522 5.72922 10.6199 5.51569 10.375 4.92188C10.2752 4.29821 10.5199 3.88154 11.1094 3.67188Z" fill="white"/>
<path opacity="0.972" fill-rule="evenodd" clip-rule="evenodd" d="M15.9844 9.79688C15.9844 9.92188 15.9844 10.0469 15.9844 10.1719C15.8897 10.4382 15.7022 10.5997 15.4219 10.6562C12.5781 10.6667 9.73438 10.6771 6.89062 10.6875C6.35569 11.976 5.39734 12.4968 4.01562 12.25C3.23312 11.9935 2.70186 11.4779 2.42188 10.7031C1.79713 10.6771 1.17213 10.6615 0.546875 10.6562C0.266498 10.5997 0.0789984 10.4382 -0.015625 10.1719C-0.015625 10.0469 -0.015625 9.92188 -0.015625 9.79688C0.0789984 9.53056 0.266498 9.36909 0.546875 9.3125C1.17213 9.30728 1.79713 9.29166 2.42188 9.26562C2.81109 8.23588 3.55587 7.69422 4.65625 7.64062C5.76347 7.69659 6.50825 8.24347 6.89062 9.28125C9.73438 9.29166 12.5781 9.30209 15.4219 9.3125C15.7022 9.36909 15.8897 9.53056 15.9844 9.79688ZM4.42188 9.01562C5.13206 8.95897 5.53831 9.28191 5.64062 9.98438C5.53894 10.6915 5.13269 11.0092 4.42188 10.9375C3.87422 10.7539 3.62944 10.3737 3.6875 9.79688C3.8005 9.40794 4.04531 9.14753 4.42188 9.01562Z" fill="white"/>
<path opacity="0.982" fill-rule="evenodd" clip-rule="evenodd" d="M15.9844 15.1093C15.9844 15.2448 15.9844 15.3802 15.9844 15.5156C15.9067 15.7442 15.7505 15.8953 15.5156 15.9687C14.8595 15.9843 14.2032 15.9896 13.5469 15.9843C13.1879 17.0406 12.4483 17.6031 11.3281 17.6718C10.2164 17.606 9.46638 17.0539 9.07812 16.0156C6.20319 15.9896 3.32819 15.9739 0.453125 15.9687C0.218253 15.8953 0.0620028 15.7442 -0.015625 15.5156C-0.015625 15.3802 -0.015625 15.2448 -0.015625 15.1093C0.0759181 14.8804 0.242585 14.7293 0.484375 14.6562C3.34897 14.6458 6.21353 14.6354 9.07812 14.625C9.61459 13.3098 10.5833 12.7889 11.9844 13.0625C12.762 13.3207 13.2828 13.8363 13.5469 14.6093C14.1925 14.6354 14.8383 14.651 15.4844 14.6562C15.7262 14.7293 15.8928 14.8804 15.9844 15.1093ZM11.2344 14.3281C11.967 14.3876 12.3159 14.7835 12.2812 15.5156C12.029 16.2068 11.5551 16.4308 10.8594 16.1875C10.3274 15.8197 10.2076 15.3458 10.5 14.7656C10.6888 14.5179 10.9336 14.372 11.2344 14.3281Z" fill="white"/>
</g>
<defs>
<clipPath id="clip0_69_2021">
<rect width="16" height="16" fill="white" transform="translate(0 2)"/>
</clipPath>
</defs>
</svg>
