<svg width="12" height="16" viewBox="0 0 12 16" fill="none" xmlns="http://www.w3.org/2000/svg">
<path d="M5.11471 0.615916C3.73929 0.744953 2.62489 1.24937 1.6747 2.16436C0.932743 2.88286 0.404865 3.78319 0.158522 4.76269C0.0236199 5.3023 -0.011572 5.64835 0.00309128 6.27887C0.0294852 7.27891 0.179051 7.81852 0.745053 8.93879C1.58673 10.6104 2.82724 12.4756 4.41087 14.4551C5.05899 15.2645 5.26428 15.4991 5.37572 15.5607C5.60446 15.6898 5.66312 15.637 6.59863 14.4668C7.76876 13.0093 8.86558 11.4403 9.66326 10.0855C10.0826 9.37283 10.6164 8.28481 10.7542 7.86544C10.9448 7.27891 11.0006 6.94752 11.0181 6.27887C11.0269 5.82725 11.0211 5.62782 10.98 5.36975C10.7982 4.15856 10.3026 3.14973 9.47264 2.2934C8.62803 1.41946 7.57228 0.868125 6.36109 0.668704C6.10888 0.627647 5.33173 0.595387 5.11471 0.615916ZM6.05609 3.31396C7.25262 3.5603 8.14708 4.48702 8.34063 5.67768C8.39635 6.0208 8.39635 6.23195 8.34063 6.57507C8.11482 7.97395 6.92416 8.98572 5.51062 8.98572C4.09708 8.98572 2.90642 7.97395 2.68061 6.57507C2.62489 6.23195 2.62489 6.0208 2.68061 5.67768C2.87416 4.48995 3.75689 3.57203 4.95635 3.31103C5.21442 3.25531 5.78336 3.25531 6.05609 3.31396Z" fill="#333333"/>
</svg>
