<svg width="18" height="20" viewBox="0 0 18 20" fill="none" xmlns="http://www.w3.org/2000/svg">
<path d="M8.08267 0.0138769C6.84072 0.172334 5.78631 0.689404 4.91111 1.56926C4.1276 2.35737 3.665 3.20386 3.43161 4.28387C3.32325 4.78009 3.32325 5.87261 3.43161 6.36883C3.66083 7.4405 4.13594 8.31201 4.91111 9.08345C5.68212 9.85905 6.55315 10.3344 7.62423 10.5638C8.12018 10.6722 9.21209 10.6722 9.70804 10.5638C10.7874 10.3303 11.6335 9.86739 12.4212 9.08345C13.1963 8.31201 13.6714 7.4405 13.9007 6.36883C14.009 5.87261 14.009 4.78009 13.9007 4.28387C13.6714 3.2122 13.1963 2.34069 12.4212 1.56926C11.6501 0.797821 10.8375 0.34747 9.79139 0.109785C9.44548 0.0305567 8.41191 -0.0278225 8.08267 0.0138769ZM9.62885 1.44416C10.3749 1.63597 10.9583 1.97374 11.5001 2.52834C12.0377 3.07043 12.3836 3.68757 12.5712 4.43399C12.6712 4.83013 12.6712 5.82257 12.5712 6.21871C12.3795 6.99015 12.0502 7.56977 11.4793 8.14105C10.9083 8.71232 10.329 9.04175 9.558 9.23356C9.14958 9.33364 8.2077 9.33364 7.79093 9.23356C6.27392 8.86661 5.14033 7.73656 4.76108 6.21871C4.66106 5.82257 4.66106 4.83013 4.76108 4.43399C4.95279 3.67506 5.29453 3.06626 5.84883 2.50749C6.50731 1.85281 7.11995 1.54424 8.16602 1.34825C8.41191 1.30238 9.32045 1.36076 9.62885 1.44416Z" fill="#3392FF"/>
<path d="M5.29044 11.3477C4.9737 11.4644 4.28188 11.8397 3.86928 12.115C1.66045 13.5994 0.297638 15.8929 0.0350784 18.5658C-0.0316034 19.2622 -0.00659772 19.5374 0.139269 19.7334C0.36432 20.0253 -0.319168 20.0044 8.72455 19.9961L16.9139 19.9836L17.0264 19.896C17.3307 19.6708 17.3807 19.4248 17.2973 18.5658C17.0014 15.5176 15.2177 12.9072 12.5296 11.577C11.8503 11.2393 11.8461 11.2393 11.2585 11.4686C10.2541 11.8606 9.67477 11.969 8.66621 11.969C7.65348 11.969 7.0075 11.8439 6.04895 11.4561C5.60301 11.2768 5.51549 11.2643 5.29044 11.3477ZM5.87391 12.828C6.25733 12.9781 6.88664 13.1408 7.41592 13.2283C8.79957 13.4535 10.3333 13.2784 11.6919 12.7446C11.8169 12.6946 11.8461 12.7071 12.2504 12.9364C13.6215 13.712 14.7509 14.9505 15.3719 16.3724C15.6595 17.0188 15.9595 18.1488 15.9595 18.5742V18.6701H8.66621H1.37288V18.5742C1.37288 18.3948 1.50625 17.6901 1.61044 17.3357C2.13972 15.4842 3.36083 13.9289 5.04038 12.9614C5.2821 12.8197 5.49465 12.7071 5.51966 12.7071C5.5405 12.7071 5.70303 12.7613 5.87391 12.828Z" fill="#3392FF"/>
</svg>
