<svg width="40" height="40" viewBox="0 0 40 40" fill="none" xmlns="http://www.w3.org/2000/svg">
<g clip-path="url(#clip0_62_1442)">
<path d="M18.0852 0.0860481C11.8352 0.734486 6.35865 4.13292 3.03053 9.4298C-1.68822 16.9298 -0.805408 26.8439 5.15553 33.3751C8.46022 36.9923 12.5852 39.1564 17.5383 39.8595C18.4602 39.9923 21.5305 39.9845 22.4993 39.8595C27.0227 39.2345 31.0696 37.2267 34.1477 34.0861C35.1633 33.0548 35.3743 32.8126 36.0462 31.922C38.0462 29.2579 39.3508 26.0079 39.8587 22.4611C39.9915 21.5392 39.9915 18.4611 39.8587 17.5392C39.5227 15.172 38.9055 13.1564 37.929 11.1798C36.8821 9.08605 35.8196 7.59386 34.1555 5.91417C31.0696 2.78917 27.2102 0.843861 22.7727 0.187611C21.8118 0.0469856 19.0383 -0.0155144 18.0852 0.0860481ZM24.7102 8.59386C26.9602 8.7423 28.2727 9.23449 29.4758 10.3751C30.6946 11.5392 31.2571 12.9689 31.4055 15.2892C31.5071 16.8126 31.5071 23.1486 31.4055 24.6954C31.2571 27.0392 30.679 28.4845 29.429 29.6642C28.2649 30.7657 26.9212 31.2657 24.7102 31.4064C23.2102 31.5001 16.7883 31.5001 15.2883 31.4064C13.0383 31.2579 11.7258 30.7657 10.5227 29.6251C9.30397 28.4611 8.74147 27.0314 8.59303 24.7111C8.49147 23.1954 8.49928 16.6798 8.59303 15.2423C8.74928 12.9532 9.31178 11.5314 10.5227 10.3751C11.679 9.28136 13.0618 8.73449 15.0696 8.60167C16.3899 8.50792 23.3587 8.50792 24.7102 8.59386Z" fill="#333333" fill-opacity="0.75"/>
<path d="M17.147 10.6328C14.8032 10.6797 14.4204 10.7031 13.897 10.8438C12.2329 11.2969 11.2876 12.2344 10.8423 13.8984C10.7017 14.4219 10.6782 14.8125 10.6313 17.25C10.6079 18.7578 10.6079 21.2422 10.6313 22.7578C10.6782 25.1875 10.7017 25.5781 10.8423 26.1016C11.2876 27.7656 12.2329 28.7109 13.897 29.1562C14.4204 29.2969 14.811 29.3203 17.2485 29.3672C18.7563 29.3906 21.2407 29.3906 22.7563 29.3672C25.2017 29.3203 25.5767 29.2969 26.1157 29.1484C27.7329 28.7188 28.7173 27.7422 29.1548 26.1172C29.2954 25.5703 29.3188 25.2109 29.3657 22.75C29.3892 21.2422 29.3892 18.7578 29.3657 17.2422C29.3188 14.8047 29.2954 14.4219 29.1548 13.8984C28.7095 12.2344 27.7563 11.2812 26.1001 10.8438C25.4907 10.6875 25.3345 10.6797 20.936 10.6016C20.311 10.5938 18.6079 10.6094 17.147 10.6328ZM26.6157 12.5859C26.9126 12.6953 27.2642 13.0312 27.3892 13.3359C27.772 14.2188 27.0923 15.2344 26.1313 15.2344C25.397 15.2344 24.7642 14.6094 24.7642 13.875C24.7642 12.9297 25.7329 12.25 26.6157 12.5859ZM21.897 14.4297C22.8423 14.7578 23.3657 15.0938 24.1079 15.8203C24.8267 16.5312 25.272 17.2344 25.6001 18.1641C25.8032 18.7422 25.8188 18.875 25.8188 20C25.8188 21.125 25.8032 21.2578 25.6001 21.8359C25.2876 22.7344 24.8188 23.4688 24.147 24.1484C23.4673 24.8203 22.7329 25.2891 21.8345 25.6016C21.2563 25.8047 21.1235 25.8203 19.9985 25.8203C18.8735 25.8203 18.7407 25.8047 18.1626 25.6016C17.2329 25.2734 16.5298 24.8281 15.8188 24.1094C15.0923 23.3672 14.7642 22.8438 14.4204 21.8984C14.186 21.2344 14.1782 21.1641 14.1782 20C14.186 18.8984 14.2017 18.7344 14.397 18.1641C14.8032 16.9531 15.6704 15.8125 16.7173 15.1172C17.8579 14.3594 18.6782 14.1328 20.1548 14.1641C21.0923 14.1875 21.2798 14.2188 21.897 14.4297Z" fill="#333333" fill-opacity="0.75"/>
<path d="M19.0771 16.2971C17.0224 16.844 15.7724 18.9065 16.288 20.8908C16.663 22.3205 17.6786 23.3361 19.1161 23.7111C21.8036 24.4143 24.413 21.8049 23.7099 19.1174C23.163 17.0315 21.0771 15.758 19.0771 16.2971Z" fill="#333333" fill-opacity="0.75"/>
</g>
<defs>
<clipPath id="clip0_62_1442">
<rect width="40" height="40" fill="white"/>
</clipPath>
</defs>
</svg>
