<svg width="35" height="35" viewBox="0 0 35 35" fill="none" xmlns="http://www.w3.org/2000/svg">
<g clip-path="url(#clip0_22_968)">
<path d="M15.8246 0.0752945C10.3558 0.642677 5.56384 3.61631 2.65173 8.25108C-1.47718 14.8136 -0.704717 23.4884 4.5111 29.2032C7.40271 32.3683 11.0121 34.2618 15.3461 34.8771C16.1527 34.9933 18.8392 34.9864 19.6869 34.8771C23.6449 34.3302 27.1859 32.5733 29.8793 29.8253C30.7679 28.923 30.9525 28.711 31.5404 27.9317C33.2904 25.6007 34.432 22.7569 34.8763 19.6534C34.9925 18.8468 34.9925 16.1534 34.8763 15.3468C34.5824 13.2755 34.0424 11.5118 33.1879 9.78233C32.2718 7.9503 31.3422 6.64463 29.8861 5.1749C27.1859 2.44053 23.809 0.73838 19.9261 0.164162C19.0853 0.0411148 16.6586 -0.0135727 15.8246 0.0752945ZM21.6215 7.51963C23.5902 7.64952 24.7386 8.08018 25.7914 9.07823C26.8578 10.0968 27.35 11.3478 27.4799 13.378C27.5687 14.711 27.5687 20.255 27.4799 21.6085C27.35 23.6593 26.8441 24.9239 25.7504 25.9562C24.7318 26.92 23.556 27.3575 21.6215 27.4806C20.309 27.5626 14.6898 27.5626 13.3773 27.4806C11.4086 27.3507 10.2601 26.92 9.20739 25.922C8.14099 24.9034 7.6488 23.6524 7.51892 21.6222C7.43005 20.296 7.43688 14.5948 7.51892 13.337C7.65563 11.3341 8.14782 10.0899 9.20739 9.07823C10.2191 8.12119 11.4291 7.64268 13.1859 7.52647C14.3412 7.44444 20.4388 7.44444 21.6215 7.51963Z" fill="#3392FF"/>
<path d="M15.0037 9.30371C12.9529 9.34473 12.6179 9.36523 12.1599 9.48828C10.7039 9.88477 9.87671 10.7051 9.48706 12.1611C9.36401 12.6191 9.34351 12.9609 9.30249 15.0938C9.28198 16.4131 9.28198 18.5869 9.30249 19.9131C9.34351 22.0391 9.36401 22.3809 9.48706 22.8389C9.87671 24.2949 10.7039 25.1221 12.1599 25.5117C12.6179 25.6348 12.9597 25.6553 15.0925 25.6963C16.4119 25.7168 18.5857 25.7168 19.9119 25.6963C22.0515 25.6553 22.3796 25.6348 22.8513 25.5049C24.2664 25.1289 25.1277 24.2744 25.5105 22.8525C25.6335 22.374 25.6541 22.0596 25.6951 19.9062C25.7156 18.5869 25.7156 16.4131 25.6951 15.0869C25.6541 12.9541 25.6335 12.6191 25.5105 12.1611C25.1208 10.7051 24.2869 9.87109 22.8376 9.48828C22.3044 9.35156 22.1677 9.34473 18.3191 9.27637C17.7722 9.26953 16.282 9.2832 15.0037 9.30371ZM23.2888 11.0127C23.5486 11.1084 23.8562 11.4023 23.9656 11.6689C24.3005 12.4414 23.7058 13.3301 22.865 13.3301C22.2224 13.3301 21.6687 12.7832 21.6687 12.1406C21.6687 11.3135 22.5164 10.7188 23.2888 11.0127ZM19.1599 12.626C19.9871 12.9131 20.4451 13.207 21.0945 13.8428C21.7234 14.4648 22.113 15.0801 22.4001 15.8936C22.5779 16.3994 22.5916 16.5156 22.5916 17.5C22.5916 18.4844 22.5779 18.6006 22.4001 19.1064C22.1267 19.8926 21.7166 20.5352 21.1287 21.1299C20.5339 21.7178 19.8914 22.1279 19.1052 22.4014C18.5994 22.5791 18.4832 22.5928 17.4988 22.5928C16.5144 22.5928 16.3982 22.5791 15.8923 22.4014C15.0789 22.1143 14.4636 21.7246 13.8416 21.0957C13.2058 20.4463 12.9187 19.9883 12.6179 19.1611C12.4128 18.5801 12.406 18.5186 12.406 17.5C12.4128 16.5361 12.4265 16.3926 12.5974 15.8936C12.9529 14.834 13.7117 13.8359 14.6277 13.2275C15.6257 12.5645 16.3435 12.3662 17.6355 12.3936C18.4558 12.4141 18.6199 12.4414 19.1599 12.626Z" fill="#3392FF"/>
<path d="M16.6924 14.26C14.8946 14.7385 13.8008 16.5432 14.252 18.2795C14.5801 19.5305 15.4688 20.4191 16.7266 20.7473C19.0782 21.3625 21.3614 19.0793 20.7461 16.7277C20.2676 14.9025 18.4424 13.7883 16.6924 14.26Z" fill="#3392FF"/>
</g>
<defs>
<clipPath id="clip0_22_968">
<rect width="35" height="35" fill="white"/>
</clipPath>
</defs>
</svg>
