<svg width="125" height="31" viewBox="0 0 125 31" fill="none" xmlns="http://www.w3.org/2000/svg">
<g clip-path="url(#clip0_637_4385)">
<path d="M78.1428 24.7485V25.7562C78.1428 25.8043 78.1284 25.8377 78.0997 25.8714C78.0758 25.9 78.0374 25.9145 77.9893 25.9145C77.9462 25.9145 77.9125 25.9 77.8789 25.8714C77.8452 25.8377 77.8308 25.8043 77.8308 25.7562V24.7485C77.8308 24.5949 77.8597 24.4508 77.9125 24.3212C77.9654 24.1869 78.0421 24.0717 78.1381 23.9708C78.2341 23.8701 78.3445 23.7931 78.4741 23.7357C78.6037 23.6781 78.7475 23.6492 78.8964 23.6492C79.0499 23.6492 79.1892 23.6781 79.3139 23.7357C79.4435 23.7933 79.5539 23.8701 79.6451 23.966C79.7363 24.0667 79.8131 24.1821 79.8657 24.3165C79.9186 24.4508 79.9425 24.5899 79.9425 24.7437V24.7487V24.7582V25.7564C79.9425 25.8045 79.928 25.838 79.8994 25.8716C79.8705 25.9003 79.8371 25.9147 79.7939 25.9147C79.7458 25.9147 79.7074 25.9003 79.6788 25.8716C79.6451 25.838 79.6307 25.8045 79.6307 25.7564V24.7582C79.6307 24.7437 79.6307 24.739 79.6354 24.7342C79.6307 24.6288 79.6115 24.5278 79.5778 24.4319C79.5394 24.3407 79.4866 24.2591 79.4243 24.1871C79.357 24.1201 79.2802 24.0625 79.1937 24.0241C79.1025 23.981 79.0065 23.9618 78.9009 23.9618C78.7904 23.9618 78.6897 23.981 78.5985 24.0194C78.5073 24.0625 78.4305 24.1153 78.3632 24.1874C78.2959 24.2546 78.2433 24.3362 78.2049 24.4321C78.1665 24.5233 78.1424 24.6241 78.1424 24.7345V24.7489L78.1428 24.7485ZM80.3074 24.7966C80.3074 24.6383 80.3363 24.4895 80.3986 24.3501C80.4562 24.211 80.5377 24.0862 80.6434 23.9855C80.7488 23.8798 80.869 23.7983 81.0083 23.7407C81.1474 23.6784 81.2962 23.6495 81.4497 23.6495C81.608 23.6495 81.7571 23.6784 81.8912 23.736C82.0303 23.7985 82.1504 23.875 82.2511 23.9807C82.3566 24.0814 82.4383 24.2016 82.4959 24.3359C82.5582 24.475 82.5871 24.6238 82.5919 24.7774V24.7821V24.7966V25.747C82.5919 25.7951 82.5774 25.8335 82.5487 25.8621C82.5151 25.8958 82.4767 25.9102 82.4336 25.9102C82.3855 25.9102 82.3518 25.8958 82.3231 25.8621C82.2945 25.8332 82.28 25.7948 82.28 25.747V25.555C82.1743 25.6702 82.0497 25.7662 81.9104 25.8382C81.7663 25.9055 81.6175 25.9439 81.4495 25.9439C81.296 25.9439 81.1472 25.915 81.0081 25.8526C80.869 25.7951 80.7488 25.7136 80.6432 25.6079C80.5377 25.5024 80.456 25.3823 80.3984 25.2432C80.3361 25.1041 80.3072 24.9553 80.3072 24.7968L80.3074 24.7966ZM80.6195 24.7966C80.6195 24.9117 80.6434 25.0174 80.6865 25.1181C80.7296 25.2141 80.7872 25.3053 80.8642 25.3821C80.9363 25.4541 81.0275 25.5164 81.1282 25.5598C81.2289 25.6029 81.3346 25.6271 81.4497 25.6271C81.5699 25.6271 81.6753 25.6031 81.776 25.5598C81.8815 25.5166 81.968 25.4543 82.04 25.3821C82.1168 25.3053 82.1743 25.2141 82.2177 25.1181C82.2608 25.0174 82.2803 24.9117 82.2803 24.7966C82.2803 24.6814 82.2611 24.571 82.2177 24.4703C82.1746 24.3696 82.1123 24.2783 82.04 24.2063C81.9632 24.1295 81.8767 24.0672 81.776 24.0239C81.6753 23.9807 81.5696 23.9615 81.4497 23.9615C81.3346 23.9615 81.2289 23.9807 81.1282 24.0239C81.0275 24.067 80.9363 24.1293 80.8642 24.2063C80.7875 24.2783 80.7299 24.3696 80.6865 24.4703C80.6434 24.571 80.6195 24.6814 80.6195 24.7966ZM83.4416 23.6781H84.483C84.5261 23.6781 84.5597 23.6926 84.5934 23.7213C84.6223 23.7547 84.6415 23.7883 84.6415 23.8317C84.6415 23.8748 84.627 23.9134 84.5934 23.9421C84.5645 23.9758 84.5261 23.9902 84.483 23.9902H83.4416V24.8205C83.4416 24.9309 83.4655 25.0363 83.5086 25.1373C83.5517 25.2382 83.6093 25.3197 83.6863 25.3918C83.7631 25.4638 83.8496 25.5214 83.9503 25.5645C84.0557 25.6076 84.1614 25.6268 84.2815 25.6268C84.387 25.6268 84.4832 25.6124 84.5694 25.5787C84.6559 25.5498 84.7374 25.502 84.819 25.4299C84.8287 25.4202 84.8382 25.4155 84.8479 25.406C84.8576 25.4013 84.8671 25.3915 84.8815 25.3868C84.9054 25.3771 84.9344 25.3771 84.9583 25.3771C84.9872 25.3818 85.0111 25.3915 85.0351 25.4155C85.0542 25.4299 85.0637 25.4491 85.0734 25.4683C85.0782 25.4922 85.0832 25.5114 85.0832 25.5356C85.0784 25.5595 85.0734 25.5787 85.064 25.6027C85.0545 25.6219 85.04 25.641 85.0256 25.6555C84.9246 25.7515 84.8145 25.8235 84.6896 25.8716C84.56 25.9197 84.4256 25.9436 84.2815 25.9436C84.1233 25.9436 83.9745 25.9147 83.8304 25.8571C83.6913 25.7996 83.5712 25.7181 83.4657 25.6171C83.36 25.5162 83.2785 25.3963 83.221 25.2619C83.1584 25.1228 83.1297 24.974 83.1297 24.8155V23.0732C83.1297 23.0301 83.1442 22.9917 83.1778 22.9628C83.2067 22.9291 83.2449 22.9147 83.2883 22.9147C83.3314 22.9147 83.3698 22.9291 83.3987 22.9578C83.4276 22.9915 83.4418 23.0298 83.4418 23.0777V23.6777L83.4416 23.6781ZM85.4478 23.1839C85.4478 23.1263 85.467 23.0832 85.5054 23.0448C85.5391 23.0111 85.5822 22.9919 85.635 22.9919C85.6879 22.9919 85.731 23.0111 85.7694 23.0448C85.803 23.0832 85.8222 23.1263 85.8222 23.1839C85.8222 23.232 85.803 23.2798 85.7694 23.3135C85.731 23.3519 85.6879 23.3711 85.635 23.3711C85.6111 23.3711 85.5822 23.3663 85.563 23.3566C85.5391 23.3421 85.5199 23.3327 85.5007 23.3135C85.4862 23.299 85.4718 23.2751 85.4623 23.2559C85.4526 23.232 85.4478 23.2078 85.4478 23.1839ZM85.7886 25.7517C85.7886 25.7948 85.7741 25.8332 85.7454 25.8621C85.7165 25.8958 85.6781 25.9102 85.635 25.9102C85.5919 25.9102 85.5535 25.8958 85.5246 25.8621C85.491 25.8332 85.4765 25.7948 85.4765 25.7517V23.8367C85.4765 23.7935 85.491 23.7549 85.5246 23.7262C85.5535 23.6973 85.5919 23.6781 85.635 23.6781C85.6781 23.6781 85.7168 23.6973 85.7454 23.7262C85.7741 23.7549 85.7886 23.7933 85.7886 23.8367V25.7517ZM86.5515 24.7966C86.5515 24.9117 86.5755 25.0174 86.6188 25.1181C86.662 25.2141 86.7195 25.3053 86.7963 25.3821C86.8684 25.4541 86.9596 25.5164 87.0603 25.5598C87.161 25.6029 87.2667 25.6271 87.3818 25.6271C87.5017 25.6271 87.6074 25.6031 87.7081 25.5598C87.8136 25.5166 87.9 25.4543 87.9721 25.3821C88.0488 25.3053 88.1064 25.2141 88.1498 25.1181C88.1929 25.0174 88.2121 24.9117 88.2121 24.7966C88.2121 24.6814 88.1929 24.571 88.1498 24.4703C88.1067 24.3696 88.0443 24.2783 87.9721 24.2063C87.8953 24.1295 87.8088 24.0672 87.7081 24.0239C87.6072 23.9807 87.5017 23.9615 87.3818 23.9615C87.2667 23.9615 87.161 23.9807 87.0603 24.0239C86.9596 24.067 86.8684 24.1293 86.7963 24.2063C86.7195 24.2783 86.662 24.3696 86.6188 24.4703C86.5757 24.571 86.5515 24.6814 86.5515 24.7966ZM86.2397 24.7966C86.2397 24.6383 86.2686 24.4895 86.3309 24.3501C86.3885 24.211 86.47 24.0862 86.5757 23.9855C86.6812 23.8798 86.8013 23.7983 86.9406 23.7407C87.0797 23.6784 87.2285 23.6495 87.3821 23.6495C87.5403 23.6495 87.6892 23.6784 87.8285 23.7407C87.9676 23.7983 88.0877 23.8798 88.1884 23.9855C88.2939 24.0862 88.3756 24.211 88.4332 24.3501C88.4955 24.4892 88.5244 24.638 88.5244 24.7966C88.5244 24.9551 88.4955 25.1039 88.4332 25.243C88.3756 25.3821 88.2941 25.5022 88.1884 25.6076C88.0877 25.7133 87.9676 25.7948 87.8285 25.8524C87.6894 25.915 87.5406 25.9436 87.3821 25.9436C87.2285 25.9436 87.0797 25.9147 86.9406 25.8524C86.8015 25.7948 86.6814 25.7133 86.5757 25.6076C86.4703 25.5022 86.3885 25.3821 86.3309 25.243C86.2686 25.1039 86.2397 24.9551 86.2397 24.7966ZM89.1962 24.7485V25.7562C89.1962 25.8043 89.1817 25.8377 89.153 25.8714C89.1291 25.9 89.0907 25.9145 89.0426 25.9145C88.9995 25.9145 88.9658 25.9 88.9322 25.8714C88.8986 25.8377 88.8841 25.8043 88.8841 25.7562V24.7485C88.8841 24.5949 88.913 24.4508 88.9658 24.3212C89.0187 24.1869 89.0955 24.0717 89.1914 23.9708C89.2874 23.8701 89.3978 23.7931 89.5274 23.7357C89.657 23.6781 89.8009 23.6492 89.9497 23.6492C90.1032 23.6492 90.2425 23.6781 90.3672 23.7357C90.4968 23.7933 90.6072 23.8701 90.6982 23.966C90.7894 24.0667 90.8662 24.1821 90.919 24.3165C90.9719 24.4508 90.9958 24.5899 90.9958 24.7437V24.7487V24.7582V25.7564C90.9958 25.8045 90.9814 25.838 90.9527 25.8716C90.9238 25.9003 90.8901 25.9147 90.8472 25.9147C90.7991 25.9147 90.7608 25.9003 90.7321 25.8716C90.6984 25.838 90.684 25.8045 90.684 25.7564V24.7582C90.684 24.7437 90.684 24.739 90.6887 24.7342C90.684 24.6288 90.6648 24.5278 90.6311 24.4319C90.5928 24.3407 90.5399 24.2591 90.4776 24.1871C90.4103 24.1201 90.3335 24.0625 90.247 24.0241C90.1558 23.981 90.0599 23.9618 89.9542 23.9618C89.8438 23.9618 89.743 23.981 89.6518 24.0194C89.5606 24.0625 89.4838 24.1153 89.4165 24.1874C89.3492 24.2546 89.2966 24.3362 89.2582 24.4321C89.2199 24.5233 89.1959 24.6241 89.1959 24.7345V24.7489L89.1962 24.7485ZM91.3607 24.7966C91.3607 24.6383 91.3896 24.4895 91.4519 24.3501C91.5095 24.211 91.591 24.0862 91.6967 23.9855C91.8022 23.8798 91.9223 23.7983 92.0616 23.7407C92.2007 23.6784 92.3495 23.6495 92.5031 23.6495C92.6613 23.6495 92.8104 23.6784 92.9445 23.736C93.0836 23.7985 93.2037 23.875 93.3044 23.9807C93.4099 24.0814 93.4916 24.2016 93.5492 24.3359C93.6115 24.475 93.6404 24.6238 93.6452 24.7774V24.7821V24.7966V25.747C93.6452 25.7951 93.6307 25.8335 93.602 25.8621C93.5684 25.8958 93.53 25.9102 93.4869 25.9102C93.4388 25.9102 93.4051 25.8958 93.3765 25.8621C93.3478 25.8332 93.3333 25.7948 93.3333 25.747V25.555C93.2277 25.6702 93.103 25.7662 92.9639 25.8382C92.8199 25.9055 92.6711 25.9439 92.5031 25.9439C92.3495 25.9439 92.2007 25.915 92.0616 25.8526C91.9225 25.7951 91.8024 25.7136 91.6967 25.6079C91.5913 25.5024 91.5095 25.3823 91.4519 25.2432C91.3896 25.1041 91.3607 24.9553 91.3607 24.7968V24.7966ZM91.6728 24.7966C91.6728 24.9117 91.6967 25.0174 91.7398 25.1181C91.783 25.2141 91.8405 25.3053 91.9176 25.3821C91.9896 25.4541 92.0808 25.5164 92.1815 25.5598C92.2822 25.6029 92.3879 25.6271 92.5031 25.6271C92.6232 25.6271 92.7286 25.6031 92.8293 25.5598C92.9348 25.5166 93.0213 25.4543 93.0933 25.3821C93.1701 25.3053 93.2277 25.2141 93.271 25.1181C93.3141 25.0174 93.3333 24.9117 93.3333 24.7966C93.3333 24.6814 93.3141 24.571 93.271 24.4703C93.2279 24.3696 93.1656 24.2783 93.0933 24.2063C93.0165 24.1295 92.93 24.0672 92.8293 24.0239C92.7286 23.9807 92.623 23.9615 92.5031 23.9615C92.3879 23.9615 92.2822 23.9807 92.1815 24.0239C92.0808 24.067 91.9896 24.1293 91.9176 24.2063C91.8408 24.2783 91.7832 24.3696 91.7398 24.4703C91.6967 24.571 91.6728 24.6814 91.6728 24.7966ZM95.0996 25.7564C95.0996 25.7996 95.0851 25.838 95.0564 25.8669C95.0278 25.8955 94.9941 25.91 94.951 25.91H94.9463H94.9366C94.8261 25.91 94.7254 25.8861 94.6342 25.8474C94.5382 25.809 94.4615 25.7562 94.3942 25.6891C94.3269 25.6171 94.2743 25.5356 94.2359 25.4349C94.1975 25.3389 94.1783 25.2285 94.1783 25.1134V22.9727C94.1783 22.9296 94.1928 22.891 94.2214 22.8576C94.2551 22.8287 94.2885 22.8145 94.3319 22.8145C94.375 22.8145 94.4086 22.8289 94.4423 22.8576C94.4757 22.891 94.4901 22.9296 94.4901 22.9727V25.1134C94.4901 25.2669 94.5333 25.3821 94.6103 25.4685C94.6918 25.5503 94.7975 25.5934 94.9366 25.5982H94.9463C94.9894 25.5982 95.028 25.6126 95.0567 25.6463C95.0856 25.6752 95.0998 25.7136 95.0998 25.7567L95.0996 25.7564ZM96.8611 23.6781H97.9025C97.9456 23.6781 97.9793 23.6926 98.0129 23.7213C98.0418 23.7547 98.061 23.7883 98.061 23.8317C98.061 23.8748 98.0465 23.9134 98.0129 23.9421C97.984 23.9758 97.9458 23.9902 97.9025 23.9902H96.8611V24.8205C96.8611 24.9309 96.885 25.0363 96.9281 25.1373C96.9713 25.2382 97.0288 25.3197 97.1058 25.3918C97.1826 25.4638 97.2691 25.5214 97.3698 25.5645C97.4753 25.6076 97.5809 25.6268 97.7011 25.6268C97.8065 25.6268 97.9027 25.6124 97.989 25.5787C98.0754 25.5498 98.157 25.502 98.2387 25.4299C98.2484 25.4202 98.2579 25.4155 98.2674 25.406C98.2771 25.4013 98.2866 25.3915 98.301 25.3868C98.325 25.3771 98.3539 25.3771 98.3778 25.3771C98.4065 25.3818 98.4306 25.3915 98.4546 25.4155C98.4738 25.4299 98.4835 25.4491 98.493 25.4683C98.4977 25.4922 98.5027 25.5114 98.5027 25.5356C98.4979 25.5595 98.493 25.5787 98.4835 25.6027C98.474 25.6219 98.4595 25.641 98.4451 25.6555C98.3444 25.7515 98.234 25.8235 98.1091 25.8716C97.9795 25.9197 97.8451 25.9436 97.7011 25.9436C97.5425 25.9436 97.394 25.9147 97.2499 25.8571C97.1108 25.7996 96.9907 25.7181 96.8852 25.6171C96.7796 25.5162 96.6981 25.3963 96.6405 25.2619C96.5782 25.1228 96.5492 24.974 96.5492 24.8155V23.0732C96.5492 23.0301 96.5637 22.9917 96.5973 22.9628C96.6263 22.9291 96.6646 22.9147 96.7078 22.9147C96.7509 22.9147 96.7893 22.9291 96.8182 22.9578C96.8471 22.9915 96.8613 23.0298 96.8613 23.0777V23.6777L96.8611 23.6781ZM99.0254 24.7966C99.0254 24.9117 99.0493 25.0174 99.0925 25.1181C99.1358 25.2141 99.1934 25.3053 99.2702 25.3821C99.3422 25.4541 99.4334 25.5164 99.5341 25.5598C99.6348 25.6029 99.7405 25.6271 99.8557 25.6271C99.9758 25.6271 100.081 25.6031 100.182 25.5598C100.287 25.5166 100.374 25.4543 100.446 25.3821C100.523 25.3053 100.58 25.2141 100.624 25.1181C100.667 25.0174 100.686 24.9117 100.686 24.7966C100.686 24.6814 100.667 24.571 100.624 24.4703C100.58 24.3696 100.518 24.2783 100.446 24.2063C100.369 24.1295 100.283 24.0672 100.182 24.0239C100.081 23.9807 99.9756 23.9615 99.8557 23.9615C99.7405 23.9615 99.6351 23.9807 99.5341 24.0239C99.4334 24.067 99.3422 24.1293 99.2702 24.2063C99.1934 24.2783 99.1358 24.3696 99.0925 24.4703C99.0493 24.571 99.0254 24.6814 99.0254 24.7966ZM98.7136 24.7966C98.7136 24.6383 98.7422 24.4895 98.8048 24.3501C98.8624 24.211 98.9439 24.0862 99.0496 23.9855C99.155 23.8798 99.2751 23.7983 99.4142 23.7407C99.5533 23.6784 99.7021 23.6495 99.8557 23.6495C100.014 23.6495 100.163 23.6784 100.302 23.7407C100.441 23.7983 100.561 23.8798 100.662 23.9855C100.768 24.0862 100.849 24.211 100.907 24.3501C100.969 24.4892 100.998 24.638 100.998 24.7966C100.998 24.9551 100.969 25.1039 100.907 25.243C100.849 25.3821 100.768 25.5022 100.662 25.6076C100.561 25.7133 100.441 25.7948 100.302 25.8524C100.163 25.915 100.014 25.9436 99.8557 25.9436C99.7021 25.9436 99.5533 25.9147 99.4142 25.8524C99.2751 25.7948 99.155 25.7133 99.0496 25.6076C98.9441 25.5022 98.8624 25.3821 98.8048 25.243C98.7422 25.1039 98.7136 24.9551 98.7136 24.7966ZM101.699 24.8397C101.699 24.9451 101.718 25.0461 101.756 25.142C101.795 25.238 101.848 25.3195 101.915 25.3915C101.982 25.4636 102.064 25.5212 102.155 25.5643C102.251 25.6074 102.352 25.6266 102.457 25.6266C102.568 25.6266 102.669 25.6027 102.755 25.5643C102.846 25.5209 102.923 25.4633 102.985 25.3915C103.048 25.3148 103.096 25.2333 103.129 25.1371C103.168 25.0363 103.182 24.9354 103.182 24.8252V23.8364C103.182 23.7933 103.197 23.7547 103.23 23.7213C103.259 23.6924 103.297 23.6781 103.341 23.6781C103.384 23.6781 103.422 23.6926 103.451 23.7213C103.48 23.7547 103.494 23.7933 103.494 23.8364V24.8347C103.494 24.9882 103.47 25.1323 103.417 25.2667C103.364 25.401 103.297 25.5162 103.206 25.6171C103.115 25.7178 103.005 25.7946 102.875 25.8571C102.75 25.9147 102.611 25.9436 102.457 25.9436C102.309 25.9436 102.165 25.9147 102.035 25.8571C101.905 25.7996 101.79 25.7181 101.699 25.6219C101.603 25.5209 101.526 25.401 101.469 25.2667C101.416 25.1323 101.387 24.9932 101.387 24.8394V23.8314C101.387 23.7883 101.402 23.7499 101.435 23.721C101.464 23.6921 101.498 23.6779 101.541 23.6779C101.584 23.6779 101.622 23.6924 101.651 23.721C101.685 23.7497 101.699 23.7881 101.699 23.8314V24.8394L101.699 24.8397ZM104.315 25.7517C104.315 25.7996 104.3 25.8332 104.271 25.8669C104.243 25.8955 104.204 25.91 104.166 25.91C104.118 25.91 104.08 25.8955 104.051 25.8669C104.017 25.8332 104.003 25.7996 104.003 25.7517V24.8733C104.003 24.7103 104.036 24.5565 104.099 24.4077C104.161 24.2636 104.243 24.139 104.353 24.0286C104.458 23.9231 104.583 23.8367 104.727 23.7743C104.871 23.712 105.025 23.6784 105.188 23.6784H105.193H105.207C105.255 23.6784 105.298 23.6928 105.327 23.7215C105.356 23.7502 105.37 23.7886 105.37 23.8319C105.37 23.875 105.351 23.9137 105.322 23.9423C105.288 23.976 105.25 23.9904 105.207 23.9904H105.193H105.188C105.068 23.9904 104.957 24.0144 104.852 24.0575C104.746 24.1056 104.65 24.1679 104.573 24.2447C104.492 24.3262 104.429 24.4224 104.386 24.5278C104.338 24.6335 104.314 24.7487 104.314 24.8733V25.7517H104.315ZM106.983 24.7966C106.983 24.9117 107.007 25.0174 107.05 25.1181C107.093 25.2141 107.151 25.3053 107.228 25.3821C107.3 25.4541 107.391 25.5164 107.492 25.5598C107.593 25.6029 107.698 25.6271 107.813 25.6271C107.933 25.6271 108.039 25.6031 108.14 25.5598C108.245 25.5166 108.332 25.4543 108.404 25.3821C108.48 25.3053 108.538 25.2141 108.581 25.1181C108.625 25.0174 108.644 24.9117 108.644 24.7966C108.644 24.6814 108.625 24.571 108.581 24.4703C108.538 24.3696 108.476 24.2783 108.404 24.2063C108.327 24.1295 108.24 24.0672 108.14 24.0239C108.039 23.9807 107.933 23.9615 107.813 23.9615C107.698 23.9615 107.593 23.9807 107.492 24.0239C107.391 24.067 107.3 24.1293 107.228 24.2063C107.151 24.2783 107.094 24.3696 107.05 24.4703C107.007 24.571 106.983 24.6814 106.983 24.7966ZM106.671 24.7966C106.671 24.6383 106.7 24.4895 106.762 24.3501C106.82 24.211 106.901 24.0862 107.007 23.9855C107.113 23.8798 107.233 23.7983 107.372 23.7407C107.511 23.6784 107.66 23.6495 107.813 23.6495C107.972 23.6495 108.121 23.6784 108.26 23.7407C108.399 23.7983 108.519 23.8798 108.62 23.9855C108.725 24.0862 108.807 24.211 108.865 24.3501C108.927 24.4892 108.956 24.638 108.956 24.7966C108.956 24.9551 108.927 25.1039 108.865 25.243C108.807 25.3821 108.725 25.5022 108.62 25.6076C108.519 25.7133 108.399 25.7948 108.26 25.8524C108.121 25.915 107.972 25.9436 107.813 25.9436C107.66 25.9436 107.511 25.9147 107.372 25.8524C107.233 25.7948 107.113 25.7133 107.007 25.6076C106.902 25.5022 106.82 25.3821 106.762 25.243C106.7 25.1039 106.671 24.9551 106.671 24.7966ZM109.315 24.7966C109.315 24.6383 109.344 24.4895 109.407 24.3501C109.464 24.211 109.546 24.0862 109.651 23.9855C109.757 23.8798 109.877 23.7983 110.016 23.7407C110.155 23.6784 110.304 23.6495 110.463 23.6495C110.621 23.6495 110.77 23.6784 110.909 23.7407C111.048 23.7983 111.168 23.8798 111.269 23.9855C111.374 24.0862 111.456 24.211 111.514 24.3501C111.576 24.4892 111.605 24.638 111.605 24.7966C111.605 24.9551 111.576 25.1039 111.514 25.243C111.456 25.3821 111.375 25.5022 111.269 25.6076C111.168 25.7133 111.048 25.7948 110.909 25.8524C110.77 25.915 110.621 25.9436 110.463 25.9436C110.295 25.9436 110.141 25.91 110.002 25.8477C109.858 25.7806 109.733 25.6941 109.628 25.579V26.5628C109.628 26.6109 109.613 26.6493 109.584 26.6779C109.56 26.7116 109.522 26.726 109.474 26.726C109.431 26.726 109.392 26.7116 109.364 26.6779C109.33 26.649 109.315 26.6107 109.315 26.5628V24.7966ZM109.628 24.7966C109.628 24.9117 109.651 25.0174 109.695 25.1181C109.738 25.2141 109.796 25.3053 109.872 25.3821C109.944 25.4541 110.036 25.5164 110.136 25.5598C110.237 25.6029 110.347 25.6271 110.463 25.6271C110.578 25.6271 110.688 25.6031 110.789 25.5598C110.89 25.5166 110.981 25.4543 111.053 25.3821C111.13 25.3053 111.187 25.2141 111.231 25.1181C111.274 25.0174 111.293 24.9117 111.293 24.7966C111.293 24.6814 111.274 24.571 111.231 24.4703C111.187 24.3696 111.125 24.2783 111.053 24.2063C110.976 24.1295 110.89 24.0672 110.789 24.0239C110.688 23.9807 110.578 23.9615 110.463 23.9615C110.347 23.9615 110.237 23.9807 110.136 24.0239C110.036 24.067 109.944 24.1293 109.872 24.2063C109.796 24.2783 109.738 24.3696 109.695 24.4703C109.651 24.571 109.628 24.6814 109.628 24.7966ZM112.219 24.9356C112.229 25.0363 112.257 25.1276 112.306 25.2141C112.353 25.2958 112.411 25.3676 112.483 25.4302C112.555 25.4925 112.637 25.5406 112.728 25.579C112.819 25.6126 112.915 25.6318 113.016 25.6318C113.131 25.6318 113.247 25.6079 113.352 25.5648C113.457 25.5214 113.544 25.4543 113.611 25.3728C113.664 25.3344 113.717 25.3247 113.77 25.3392C113.798 25.3489 113.823 25.3728 113.842 25.4015C113.861 25.4304 113.871 25.4685 113.871 25.5069C113.871 25.5453 113.851 25.5837 113.813 25.6126C113.727 25.7086 113.616 25.7854 113.487 25.8477C113.352 25.9102 113.199 25.9436 113.016 25.9436C112.858 25.9436 112.709 25.9147 112.57 25.8524C112.436 25.7948 112.311 25.7133 112.21 25.6076C112.105 25.5022 112.023 25.3821 111.961 25.243C111.903 25.1039 111.874 24.9551 111.874 24.7966C111.874 24.6383 111.903 24.4895 111.961 24.3501C112.023 24.211 112.105 24.0909 112.21 23.9855C112.311 23.8798 112.436 23.7983 112.57 23.7407C112.709 23.6784 112.858 23.6495 113.016 23.6495C113.175 23.6495 113.324 23.6784 113.463 23.736C113.602 23.7985 113.722 23.88 113.823 23.9807C113.928 24.0814 114.01 24.2063 114.072 24.3407C114.13 24.4797 114.164 24.6286 114.164 24.7821C114.164 24.8252 114.149 24.8638 114.12 24.8925C114.096 24.9214 114.058 24.9356 114.015 24.9356H112.22H112.219ZM113.846 24.6717C113.832 24.571 113.803 24.4748 113.755 24.3885C113.711 24.302 113.649 24.2302 113.577 24.1629C113.5 24.1006 113.419 24.0525 113.323 24.0141C113.227 23.9805 113.131 23.9613 113.025 23.9613C112.915 23.9613 112.814 23.9805 112.723 24.0141C112.627 24.0525 112.545 24.1006 112.468 24.1677C112.396 24.2302 112.339 24.302 112.291 24.3885C112.248 24.475 112.219 24.571 112.209 24.6717H113.846H113.846ZM114.845 25.7517C114.845 25.7996 114.83 25.8332 114.801 25.8669C114.773 25.8955 114.734 25.91 114.696 25.91C114.648 25.91 114.609 25.8955 114.581 25.8669C114.547 25.8332 114.533 25.7996 114.533 25.7517V24.8733C114.533 24.7103 114.566 24.5565 114.629 24.4077C114.691 24.2636 114.773 24.139 114.883 24.0286C114.988 23.9231 115.113 23.8367 115.257 23.7743C115.401 23.712 115.555 23.6784 115.718 23.6784H115.723H115.737C115.785 23.6784 115.829 23.6928 115.857 23.7215C115.886 23.7502 115.9 23.7886 115.9 23.8319C115.9 23.875 115.881 23.9137 115.852 23.9423C115.819 23.976 115.78 23.9904 115.737 23.9904H115.723H115.718C115.598 23.9904 115.487 24.0144 115.382 24.0575C115.276 24.1056 115.18 24.1679 115.104 24.2447C115.022 24.3262 114.959 24.4224 114.916 24.5278C114.868 24.6335 114.844 24.7487 114.844 24.8733V25.7517H114.845Z" fill="#274AE6"/>
<path d="M115.977 24.7965C115.977 24.6383 116.006 24.4895 116.068 24.3501C116.126 24.211 116.207 24.0862 116.313 23.9855C116.419 23.8798 116.539 23.7983 116.678 23.7407C116.817 23.6784 116.966 23.6495 117.12 23.6495C117.278 23.6495 117.427 23.6784 117.561 23.7359C117.7 23.7985 117.82 23.875 117.921 23.9807C118.026 24.0814 118.108 24.2016 118.166 24.3359C118.228 24.475 118.257 24.6238 118.262 24.7774V24.7821V24.7965V25.747C118.262 25.7951 118.247 25.8334 118.218 25.8621C118.185 25.8958 118.146 25.9102 118.103 25.9102C118.055 25.9102 118.022 25.8958 117.993 25.8621C117.964 25.8332 117.95 25.7948 117.95 25.747V25.555C117.844 25.6702 117.719 25.7661 117.58 25.8382C117.436 25.9055 117.287 25.9439 117.119 25.9439C116.966 25.9439 116.817 25.915 116.678 25.8526C116.539 25.7951 116.419 25.7135 116.313 25.6079C116.207 25.5024 116.126 25.3823 116.068 25.2432C116.006 25.1041 115.977 24.9553 115.977 24.7968L115.977 24.7965ZM116.289 24.7965C116.289 24.9117 116.313 25.0174 116.356 25.1181C116.399 25.2141 116.457 25.3053 116.534 25.382C116.606 25.4541 116.697 25.5164 116.798 25.5598C116.898 25.6029 117.004 25.6271 117.119 25.6271C117.239 25.6271 117.345 25.6031 117.446 25.5598C117.551 25.5166 117.637 25.4543 117.71 25.382C117.786 25.3053 117.844 25.2141 117.887 25.1181C117.93 25.0174 117.95 24.9117 117.95 24.7965C117.95 24.6814 117.93 24.571 117.887 24.4703C117.844 24.3696 117.782 24.2783 117.71 24.2063C117.633 24.1295 117.546 24.0672 117.446 24.0238C117.345 23.9807 117.239 23.9615 117.119 23.9615C117.004 23.9615 116.899 23.9807 116.798 24.0238C116.697 24.067 116.606 24.1293 116.534 24.2063C116.457 24.2783 116.399 24.3696 116.356 24.4703C116.313 24.571 116.289 24.6814 116.289 24.7965ZM119.111 23.6781H120.152C120.196 23.6781 120.229 23.6926 120.263 23.7213C120.292 23.7547 120.311 23.7883 120.311 23.8317C120.311 23.8748 120.297 23.9134 120.263 23.9421C120.234 23.9757 120.196 23.9902 120.152 23.9902H119.111V24.8205C119.111 24.9309 119.135 25.0363 119.178 25.1373C119.221 25.2382 119.279 25.3197 119.356 25.3918C119.433 25.4638 119.519 25.5214 119.62 25.5645C119.725 25.6076 119.831 25.6268 119.951 25.6268C120.057 25.6268 120.152 25.6124 120.239 25.5787C120.325 25.5498 120.407 25.5019 120.488 25.4299C120.498 25.4202 120.508 25.4155 120.517 25.406C120.527 25.4012 120.536 25.3915 120.551 25.3868C120.575 25.3771 120.604 25.3771 120.628 25.3771C120.656 25.3818 120.68 25.3915 120.704 25.4155C120.724 25.4299 120.733 25.4491 120.743 25.4683C120.747 25.4922 120.752 25.5114 120.752 25.5356C120.748 25.5595 120.743 25.5787 120.733 25.6027C120.724 25.6218 120.709 25.641 120.695 25.6555C120.594 25.7515 120.484 25.8235 120.359 25.8716C120.229 25.9197 120.095 25.9436 119.951 25.9436C119.793 25.9436 119.644 25.9147 119.5 25.8571C119.361 25.7996 119.24 25.718 119.135 25.6171C119.029 25.5162 118.948 25.3963 118.89 25.2619C118.828 25.1228 118.799 24.974 118.799 24.8155V23.0732C118.799 23.0301 118.813 22.9917 118.847 22.9628C118.876 22.9291 118.914 22.9147 118.958 22.9147C119.001 22.9147 119.039 22.9291 119.068 22.9578C119.097 22.9914 119.111 23.0298 119.111 23.0777V23.6777V23.6781ZM121.275 24.7965C121.275 24.9117 121.299 25.0174 121.342 25.1181C121.386 25.2141 121.443 25.3053 121.52 25.382C121.592 25.4541 121.683 25.5164 121.784 25.5598C121.885 25.6029 121.991 25.6271 122.106 25.6271C122.226 25.6271 122.331 25.6031 122.432 25.5598C122.537 25.5166 122.624 25.4543 122.696 25.382C122.773 25.3053 122.83 25.2141 122.874 25.1181C122.917 25.0174 122.936 24.9117 122.936 24.7965C122.936 24.6814 122.917 24.571 122.874 24.4703C122.83 24.3696 122.768 24.2783 122.696 24.2063C122.619 24.1295 122.533 24.0672 122.432 24.0238C122.331 23.9807 122.226 23.9615 122.106 23.9615C121.991 23.9615 121.885 23.9807 121.784 24.0238C121.683 24.067 121.592 24.1293 121.52 24.2063C121.443 24.2783 121.386 24.3696 121.342 24.4703C121.299 24.571 121.275 24.6814 121.275 24.7965ZM120.964 24.7965C120.964 24.6383 120.992 24.4895 121.055 24.3501C121.112 24.211 121.194 24.0862 121.3 23.9855C121.405 23.8798 121.525 23.7983 121.664 23.7407C121.803 23.6784 121.952 23.6495 122.106 23.6495C122.264 23.6495 122.413 23.6784 122.552 23.7407C122.691 23.7983 122.811 23.8798 122.912 23.9855C123.017 24.0862 123.099 24.211 123.157 24.3501C123.219 24.4892 123.248 24.638 123.248 24.7965C123.248 24.9551 123.219 25.1039 123.157 25.243C123.099 25.382 123.018 25.5022 122.912 25.6076C122.811 25.7133 122.691 25.7948 122.552 25.8524C122.413 25.915 122.264 25.9436 122.106 25.9436C121.952 25.9436 121.803 25.9147 121.664 25.8524C121.525 25.7948 121.405 25.7133 121.3 25.6076C121.194 25.5022 121.112 25.382 121.055 25.243C120.992 25.1039 120.964 24.9551 120.964 24.7965ZM123.944 25.7517C123.944 25.7996 123.93 25.8332 123.901 25.8669C123.872 25.8955 123.834 25.91 123.796 25.91C123.748 25.91 123.709 25.8955 123.68 25.8669C123.647 25.8332 123.632 25.7996 123.632 25.7517V24.8733C123.632 24.7103 123.666 24.5565 123.728 24.4077C123.791 24.2636 123.872 24.139 123.983 24.0286C124.088 23.9231 124.213 23.8367 124.357 23.7743C124.501 23.712 124.655 23.6784 124.818 23.6784H124.823H124.837C124.885 23.6784 124.928 23.6928 124.957 23.7215C124.986 23.7502 125 23.7886 125 23.8319C125 23.875 124.981 23.9137 124.952 23.9423C124.918 23.976 124.88 23.9904 124.837 23.9904H124.822H124.817C124.697 23.9904 124.587 24.0144 124.481 24.0575C124.376 24.1056 124.28 24.1679 124.203 24.2447C124.121 24.3262 124.059 24.4224 124.016 24.5278C123.968 24.6335 123.944 24.7487 123.944 24.8733V25.7517H123.944Z" fill="#274AE6"/>
<path fill-rule="evenodd" clip-rule="evenodd" d="M50.392 24.6345L55.9317 24.6342L59.8488 28.5515L63.7658 24.6345H69.3053V19.0948L73.2223 15.1777L69.3053 11.2607V5.72125H63.7658L59.8488 1.8042L55.9317 5.72125H50.392V11.2607L46.475 15.1777L50.392 19.0948V24.6345Z" fill="#20C8D4"/>
<path fill-rule="evenodd" clip-rule="evenodd" d="M49.1139 4.44971H55.4066L59.8563 0L64.306 4.44971H70.5988V10.7424L75.0485 15.1921L70.5988 19.6419V25.9346H64.306L59.8563 30.3843L55.4066 25.9346H49.1139V19.6416L44.6642 15.1919L49.1139 10.7422V4.44948V4.44971ZM50.0837 5.41956H55.8085L59.8566 1.37148L63.9047 5.41956H69.6294V11.1441L73.6775 15.1921L69.6294 19.2402V24.965H63.9047L59.8566 29.0131L55.8085 24.965H50.0837V19.2402L46.0357 15.1921L50.0837 11.1441V5.41932V5.41956Z" fill="#274AE6"/>
<path d="M60.1151 26.2287C60.1004 26.1303 60.0943 26.0697 60.0881 26.0173C60.0317 25.9964 59.9625 25.9796 59.8893 25.9796C59.6907 25.9796 59.5694 26.1028 59.5694 26.2514C59.5694 26.4166 59.7159 26.4898 59.8225 26.5443C59.9395 26.6049 60.0213 26.6552 60.0213 26.7639C60.0213 26.8706 59.9564 26.9395 59.8433 26.9395C59.6865 26.9395 59.6133 26.7826 59.586 26.6886L59.54 26.7011C59.5505 26.7743 59.5734 26.9104 59.582 26.9395C59.5986 26.9459 59.6197 26.9585 59.6592 26.971C59.6969 26.9857 59.749 26.9961 59.8118 26.9961C60.0211 26.9961 60.1568 26.8687 60.1568 26.7075C60.1568 26.5445 60.0229 26.4732 59.8933 26.4106C59.7677 26.35 59.6967 26.2997 59.6967 26.1931C59.6967 26.1116 59.7509 26.0322 59.8661 26.0322C59.9957 26.0322 60.0419 26.141 60.0689 26.235L60.1149 26.2287H60.1151Z" fill="#274AE6"/>
<path d="M60.3864 3.95141H60.0277V3.99477C60.1348 3.9988 60.1699 4.01941 60.176 4.08742C60.18 4.13054 60.1862 4.19665 60.1862 4.33266V4.67672H60.1822L59.5434 3.95117H59.3126V3.99453C59.3827 3.99856 59.4135 4.01088 59.4464 4.04808C59.4732 4.08315 59.4772 4.09145 59.4772 4.19855V4.51393C59.4772 4.64994 59.4711 4.72008 59.4649 4.76534C59.4588 4.8395 59.4197 4.85799 59.3329 4.86438V4.90751H59.6936V4.86438C59.5905 4.85609 59.5554 4.83761 59.5493 4.76131C59.5452 4.72008 59.5391 4.64994 59.5391 4.51393V4.15519H59.5412L60.2028 4.92196H60.2502V4.33266C60.2502 4.19665 60.2542 4.13078 60.2585 4.08315C60.2668 4.01515 60.3018 3.99856 60.3864 3.99453V3.95117V3.95141Z" fill="#274AE6"/>
<path d="M49.7814 14.6989H49.4404V14.7429C49.5639 14.7555 49.5679 14.7742 49.547 14.8642C49.5241 14.9583 49.4404 15.2491 49.3755 15.45H49.3712C49.2772 15.1991 49.1871 14.9586 49.1016 14.7138H49.0513C48.9741 14.9564 48.8862 15.2033 48.8066 15.45H48.8023C48.7355 15.245 48.6767 15.0462 48.6163 14.8498C48.5954 14.7725 48.5954 14.7557 48.7104 14.7432V14.6991H48.3234V14.7432C48.4175 14.7536 48.4405 14.7702 48.4782 14.8936C48.5639 15.155 48.6516 15.4166 48.7331 15.6862H48.7855C48.8651 15.4476 48.9509 15.2074 49.0364 14.9522H49.0385C49.1179 15.1614 49.2205 15.4479 49.3063 15.6862H49.3606C49.488 15.268 49.5802 14.9917 49.6158 14.8977C49.6617 14.7723 49.6764 14.7576 49.7809 14.7429V14.6989H49.7814Z" fill="#274AE6"/>
<path d="M71.439 15.4287C71.416 15.4893 71.3866 15.5415 71.3615 15.573C71.326 15.6125 71.28 15.6232 71.1691 15.6232C71.1002 15.6232 71.0438 15.6232 71.0144 15.6064C70.985 15.5874 70.9767 15.554 70.9767 15.4829V15.2069H71.1168C71.2506 15.2069 71.2611 15.2152 71.2822 15.3239H71.3281V15.0311H71.2822C71.2632 15.1315 71.2528 15.1441 71.1168 15.1441H70.9767V14.8095C70.9767 14.7657 70.9789 14.7614 71.0291 14.7614H71.1421C71.2487 14.7614 71.2907 14.7718 71.3115 14.8033C71.3303 14.8368 71.3471 14.8704 71.3618 14.933L71.4099 14.9266C71.4035 14.8429 71.3973 14.7446 71.3952 14.7069H70.703V14.751C70.8222 14.7614 70.8348 14.7657 70.8348 14.9014V15.4872C70.8348 15.6085 70.8222 15.6232 70.6843 15.6336V15.6775H71.4331C71.4456 15.6294 71.475 15.4912 71.4855 15.4348L71.4395 15.4287H71.439Z" fill="#274AE6"/>
<path fill-rule="evenodd" clip-rule="evenodd" d="M59.8563 8.94995C63.304 8.94995 66.099 11.7448 66.099 15.1924C66.099 18.6401 63.3042 21.4352 59.8563 21.4352C56.4087 21.4352 53.6138 18.6403 53.6138 15.1924C53.6138 11.7448 56.4087 8.94995 59.8563 8.94995ZM59.8563 9.45632C63.0244 9.45632 65.5927 12.0244 65.5927 15.1927C65.5927 18.3607 63.0244 20.929 59.8563 20.929C56.6883 20.929 54.12 18.3607 54.12 15.1927C54.12 12.0246 56.6883 9.45632 59.8563 9.45632Z" fill="#274AE6"/>
<path fill-rule="evenodd" clip-rule="evenodd" d="M59.8564 10.5493C62.4209 10.5493 64.4997 12.6281 64.4997 15.1926C64.4997 17.7571 62.4209 19.8359 59.8564 19.8359C57.2921 19.8359 55.2131 17.7571 55.2131 15.1926C55.2131 12.6281 57.2921 10.5493 59.8564 10.5493ZM59.8564 10.7839C62.2913 10.7839 64.2651 12.7577 64.2651 15.1926C64.2651 17.6275 62.2913 19.6013 59.8564 19.6013C57.4217 19.6013 55.4477 17.6275 55.4477 15.1926C55.4477 12.7579 57.4215 10.7839 59.8564 10.7839Z" fill="#274AE6"/>
<path fill-rule="evenodd" clip-rule="evenodd" d="M58.7953 13.3211L59.7905 6.22253L60.8847 13.3335L59.8564 15.1926L58.7953 13.3211Z" fill="white"/>
<path fill-rule="evenodd" clip-rule="evenodd" d="M60.843 16.9809L59.9962 24.162L58.8434 17.06L59.8564 15.1926L60.843 16.9809Z" fill="white"/>
<path fill-rule="evenodd" clip-rule="evenodd" d="M61.633 14.1848L68.8266 15.2333L61.7029 16.2427L59.8563 15.1926L61.633 14.1848Z" fill="white"/>
<path fill-rule="evenodd" clip-rule="evenodd" d="M58.088 16.2148L50.8859 15.2258L58.001 14.1576L59.8564 15.1926L58.088 16.2148Z" fill="white"/>
<path fill-rule="evenodd" clip-rule="evenodd" d="M59.7905 6.22253L60.8847 13.3335L59.8563 15.1926L59.7905 6.22253Z" fill="#274AE6"/>
<path fill-rule="evenodd" clip-rule="evenodd" d="M59.9959 24.162L58.8434 17.06L59.8564 15.1926L59.9959 24.162Z" fill="#274AE6"/>
<path fill-rule="evenodd" clip-rule="evenodd" d="M68.8266 15.2334L61.7029 16.2428L59.8563 15.1926L68.8266 15.2334Z" fill="#274AE6"/>
<path fill-rule="evenodd" clip-rule="evenodd" d="M50.8859 15.2258L58.001 14.1576L59.8564 15.1926L50.8859 15.2258Z" fill="#274AE6"/>
<path fill-rule="evenodd" clip-rule="evenodd" d="M61.633 14.1849L59.8563 15.1926L60.8847 13.3335L63.8786 11.1085L61.633 14.1849Z" fill="white"/>
<path fill-rule="evenodd" clip-rule="evenodd" d="M58.0882 16.2148L59.8564 15.1926L58.8434 17.06L55.868 19.3097L58.0882 16.2148Z" fill="white"/>
<path fill-rule="evenodd" clip-rule="evenodd" d="M60.843 16.9809L59.8563 15.1926L61.7029 16.2428L63.8923 19.263L60.843 16.9809Z" fill="white"/>
<path fill-rule="evenodd" clip-rule="evenodd" d="M58.8552 13.4124L59.8563 15.1926L58.001 14.1576L55.7869 11.1556L58.8552 13.4124Z" fill="white"/>
<path fill-rule="evenodd" clip-rule="evenodd" d="M63.8786 11.1085L61.633 14.1849L59.8563 15.1926L63.8786 11.1085Z" fill="#274AE6"/>
<path fill-rule="evenodd" clip-rule="evenodd" d="M55.868 19.3097L58.0882 16.2148L59.8564 15.1926L55.868 19.3097Z" fill="#274AE6"/>
<path fill-rule="evenodd" clip-rule="evenodd" d="M63.8923 19.263L60.843 16.9809L59.8563 15.1926L63.8923 19.263Z" fill="#274AE6"/>
<path fill-rule="evenodd" clip-rule="evenodd" d="M55.7869 11.1556L58.7953 13.3211L59.8563 15.1926L55.7869 11.1556Z" fill="#274AE6"/>
<path d="M6.17544 11.7144L3.6865 16.4234H8.65087L6.17544 11.7144ZM10.5749 20.0693L9.4449 17.8899H2.89295L1.76269 20.0693H0.000244141L5.15299 10.3287H7.18461L12.3374 20.0693H10.5749Z" fill="#274AE6"/>
<path d="M22.1318 12.616C21.4053 12.2393 20.6788 11.9568 19.9658 11.782C19.2393 11.6068 18.4858 11.5128 17.719 11.5128C16.7101 11.5128 15.9431 11.6339 15.4185 11.8625C14.8936 12.1047 14.6382 12.4276 14.6382 12.8312C14.6382 13.2617 14.9206 13.5712 15.4858 13.7728C15.755 13.8671 16.0509 13.9342 16.3871 13.9747C16.7101 14.015 17.0734 14.0555 17.4634 14.069C17.8536 14.0958 18.2707 14.1228 18.7145 14.1498C19.1585 14.1766 19.6293 14.2171 20.1272 14.2844C21.3515 14.4325 22.2529 14.7284 22.8315 15.1725C23.4099 15.6165 23.7059 16.2355 23.7059 17.056C23.7059 18.092 23.2618 18.8858 22.3605 19.4509C21.4591 20.016 20.1272 20.2985 18.3915 20.2985C17.1404 20.2985 16.0507 20.1639 15.0953 19.8949C14.1401 19.6393 13.3058 19.2222 12.5928 18.6571L13.4807 17.4866C14.2745 17.9709 15.0683 18.3206 15.8621 18.5495C16.6558 18.7782 17.5034 18.8858 18.4048 18.8858C19.5753 18.8858 20.4497 18.7244 21.0553 18.4149C21.6607 18.1055 21.9567 17.6884 21.9567 17.1638C21.9567 16.8141 21.8624 16.5449 21.6607 16.3565C21.4589 16.1682 21.1629 16.0201 20.7726 15.926C20.3824 15.8317 19.9116 15.7509 19.3599 15.7106C18.7948 15.6703 18.1491 15.6298 17.4361 15.5895C16.6826 15.5357 16.0234 15.4549 15.4718 15.3609C14.9067 15.2666 14.4358 15.1322 14.0591 14.9438C13.6823 14.7555 13.3999 14.5133 13.2115 14.2038C13.0231 13.8944 12.9291 13.5176 12.9291 13.0468C12.9291 12.1319 13.3461 11.4054 14.1937 10.8808C15.0413 10.3562 16.2521 10.087 17.8397 10.087C19.9386 10.087 21.701 10.5714 23.1135 11.5265L22.1313 12.6165L22.1318 12.616ZM26.2351 20.0693V10.3287H27.8497V20.0693H26.2351Z" fill="#274AE6"/>
<path d="M35.7473 11.7144L33.2583 16.4234H38.2227L35.747 11.7144H35.7473ZM40.1467 20.0693L39.0167 17.8899H32.4645L31.3343 20.0693H29.5718L34.7246 10.3287H36.7562L41.909 20.0693H40.1465H40.1467Z" fill="#274AE6"/>
<path d="M77.8033 19.9146V10.174H79.4179V18.4481H86.9385V19.9146H77.8033Z" fill="#274AE6"/>
<path d="M99.5986 16.7664C99.5986 17.2643 99.4775 17.7216 99.2218 18.1386C98.9662 18.5556 98.5894 18.9189 98.1186 19.2283C97.6478 19.5378 97.0691 19.78 96.3964 19.9548C95.7102 20.1297 94.9434 20.2105 94.0958 20.2105C93.2483 20.2105 92.4813 20.1297 91.7953 19.9548C91.1091 19.7665 90.5172 19.5378 90.0463 19.2283C89.5753 18.9189 89.2123 18.5556 88.9566 18.1386C88.7009 17.7216 88.5663 17.2643 88.5663 16.7664V10.174H90.1809V16.3897C90.1809 17.1429 90.5174 17.7351 91.1764 18.1386C91.8356 18.5421 92.8042 18.744 94.0958 18.744C95.374 18.744 96.3426 18.5421 97.0018 18.1386C97.661 17.7351 97.984 17.1429 97.984 16.3897V10.174H99.5983V16.7664H99.5986Z" fill="#274AE6"/>
<path d="M110.846 19.9146L106.918 15.9859L103.002 19.9146H100.903L105.868 14.977L101.078 10.174H103.177L106.931 13.968L110.671 10.174H112.77L107.98 14.977L112.945 19.9146H110.846H110.846ZM114.748 19.9146V10.174H124.569V11.6404H116.362V14.1294H122.067V15.5959H116.362V18.4483H124.946V19.9148H114.748V19.9146Z" fill="#274AE6"/>
</g>
<defs>
<clipPath id="clip0_637_4385">
<rect width="125" height="30.3844" fill="white"/>
</clipPath>
</defs>
</svg>
