<svg width="25" height="15" viewBox="0 0 25 15" fill="none" xmlns="http://www.w3.org/2000/svg">
<g style="mix-blend-mode:luminosity" opacity="0.75">
<path d="M15.416 1.60345H8.85352V13.3965H15.416V1.60345Z" fill="#FF5F00"/>
<path d="M9.27023 7.5C9.26919 6.36425 9.52656 5.24315 10.0229 4.22157C10.5191 3.19999 11.2413 2.30471 12.1348 1.6035C11.0284 0.733844 9.69962 0.193016 8.30038 0.0428346C6.90114 -0.107347 5.48787 0.139171 4.22211 0.754225C2.95635 1.36928 1.88917 2.32805 1.14255 3.52094C0.395933 4.71383 0 6.09272 0 7.5C0 8.90728 0.395933 10.2862 1.14255 11.4791C1.88917 12.672 2.95635 13.6307 4.22211 14.2458C5.48787 14.8608 6.90114 15.1073 8.30038 14.9572C9.69962 14.807 11.0284 14.2662 12.1348 13.3965C11.2413 12.6953 10.5192 11.8 10.0229 10.7784C9.52657 9.75685 9.2692 8.63575 9.27023 7.5Z" fill="#EB001B"/>
<path d="M24.2692 7.5C24.2692 8.90726 23.8733 10.2861 23.1268 11.479C22.3802 12.6719 21.313 13.6307 20.0473 14.2458C18.7816 14.8608 17.3683 15.1073 15.9691 14.9572C14.5699 14.807 13.2411 14.2662 12.1348 13.3965C13.0274 12.6946 13.7491 11.7992 14.2453 10.7777C14.7415 9.75632 14.9993 8.63557 14.9993 7.5C14.9993 6.36443 14.7415 5.24368 14.2453 4.22226C13.7491 3.20084 13.0274 2.30542 12.1348 1.6035C13.2411 0.733841 14.5699 0.193013 15.9691 0.0428326C17.3683 -0.107347 18.7816 0.139182 20.0473 0.754242C21.313 1.3693 22.3802 2.32807 23.1268 3.52097C23.8733 4.71386 24.2692 6.09274 24.2692 7.5Z" fill="#F79E1B"/>
<path d="M23.5529 12.1474V11.9059H23.6503V11.8567H23.4023V11.9059H23.4997V12.1474H23.5529ZM24.0343 12.1474V11.8563H23.9583L23.8709 12.0565L23.7834 11.8563H23.7074V12.1474H23.7611V11.9278L23.843 12.1171H23.8987L23.9807 11.9273V12.1474H24.0343Z" fill="#F79E1B"/>
</g>
</svg>
