<svg width="25" height="15" viewBox="0 0 25 15" fill="none" xmlns="http://www.w3.org/2000/svg">
<path d="M15.3485 1.59644H8.81476V13.3378H15.3485V1.59644Z" fill="#FF5F00"/>
<path d="M9.22965 7.46717C9.22862 6.33639 9.48486 5.2202 9.97898 4.20309C10.4731 3.18598 11.1921 2.29462 12.0817 1.59648C10.9801 0.730632 9.65717 0.192172 8.26405 0.0426471C6.87093 -0.106877 5.46385 0.138562 4.20363 0.750923C2.94341 1.36328 1.8809 2.31786 1.13755 3.50553C0.3942 4.6932 0 6.06605 0 7.46717C0 8.86829 0.3942 10.2411 1.13755 11.4288C1.8809 12.6165 2.94341 13.5711 4.20363 14.1834C5.46385 14.7958 6.87093 15.0412 8.26405 14.8917C9.65717 14.7422 10.9801 14.2037 12.0817 13.3379C11.1921 12.6397 10.4731 11.7484 9.97899 10.7312C9.48487 9.71414 9.22863 8.59795 9.22965 7.46717Z" fill="#EB001B"/>
<path d="M24.163 7.46717C24.163 8.86827 23.7689 10.2411 23.0255 11.4288C22.2822 12.6165 21.2198 13.571 19.9596 14.1834C18.6994 14.7958 17.2923 15.0412 15.8992 14.8917C14.5061 14.7422 13.1832 14.2037 12.0817 13.3379C12.9704 12.639 13.6889 11.7475 14.1829 10.7306C14.677 9.71362 14.9337 8.59777 14.9337 7.46717C14.9337 6.33657 14.677 5.22073 14.1829 4.20378C13.6889 3.18683 12.9704 2.29532 12.0817 1.59648C13.1832 0.730629 14.5061 0.192168 15.8992 0.0426451C17.2923 -0.106877 18.6994 0.138573 19.9596 0.75094C21.2198 1.36331 22.2822 2.31788 23.0255 3.50555C23.7689 4.69323 24.163 6.06607 24.163 7.46717Z" fill="#F79E1B"/>
<path d="M23.4499 12.0942V11.8538H23.5468V11.8049H23.2999V11.8538H23.3969V12.0942H23.4499ZM23.9291 12.0942V11.8044H23.8534L23.7664 12.0037L23.6793 11.8044H23.6036V12.0942H23.6571V11.8756L23.7387 12.0641H23.7941L23.8757 11.8751V12.0942H23.9291Z" fill="#F79E1B"/>
</svg>
