<svg width="35" height="35" viewBox="0 0 35 35" fill="none" xmlns="http://www.w3.org/2000/svg">
<circle cx="17.5" cy="17.5" r="17.5" fill="#3392FF"/>
<g clip-path="url(#clip0_55_1249)">
<path d="M12.2119 10.0381C12.1475 10.0615 12.0537 10.0996 12.0039 10.126C11.8896 10.1846 10.9697 11.0635 10.6943 11.3711C10.46 11.6377 10.2402 12.0449 10.1348 12.4053C9.5957 14.2686 10.7061 17.0254 13.1436 19.873C13.5625 20.3594 14.834 21.6104 15.3467 22.0381C18.0947 24.3262 20.6816 25.3516 22.5273 24.8828C22.6533 24.8506 22.9053 24.751 23.0811 24.666C23.4619 24.4785 23.6201 24.3438 24.3408 23.5938C24.9268 22.9844 24.9854 22.8877 24.9854 22.5244C24.9854 22.1201 25.0088 22.1494 23.4854 20.6318C22.2256 19.3779 22.1348 19.29 21.9824 19.2402C21.7451 19.1611 21.4756 19.1729 21.2646 19.2695C21.1299 19.3311 20.9922 19.4453 20.623 19.8115C20.0137 20.4121 19.8115 20.5234 19.3135 20.5234C19.0117 20.5234 18.8096 20.459 18.4521 20.2598C17.2627 19.5947 16.2256 18.6807 15.4053 17.5762C14.9922 17.0166 14.6084 16.3633 14.5234 16.0791C14.4209 15.7158 14.4824 15.2588 14.6787 14.9424C14.7197 14.875 14.9541 14.6143 15.2031 14.3652C15.5576 14.0049 15.6689 13.873 15.7305 13.7383C15.8271 13.5244 15.8389 13.2549 15.7598 13.0176C15.71 12.8652 15.6221 12.7744 14.3682 11.5147C12.8916 10.0322 12.8887 10.0293 12.5254 10.0117C12.4111 10.0059 12.2793 10.0176 12.2119 10.0381Z" fill="white"/>
</g>
<defs>
<clipPath id="clip0_55_1249">
<rect width="15" height="15" fill="white" transform="translate(10 10)"/>
</clipPath>
</defs>
</svg>
