<svg width="20" height="20" viewBox="0 0 20 20" fill="none" xmlns="http://www.w3.org/2000/svg">
<g clip-path="url(#clip0_345_5497)">
<path opacity="0.973" fill-rule="evenodd" clip-rule="evenodd" d="M19.9805 11.3086C19.9805 11.7253 19.9805 12.1419 19.9805 12.5586C19.5565 14.9294 18.1763 16.4202 15.8398 17.0312C15.645 17.0605 15.4496 17.0865 15.2539 17.1094C12.6367 17.1354 10.0195 17.1354 7.40234 17.1094C6.95992 16.9857 6.72555 16.6927 6.69922 16.2305C6.73891 15.8203 6.94723 15.5404 7.32422 15.3906C9.96625 15.3393 12.6095 15.3133 15.2539 15.3125C16.6347 15.0775 17.5657 14.3027 18.0469 12.9883C18.4693 11.286 17.955 9.95136 16.5039 8.98437C16.1004 8.76308 15.6707 8.61984 15.2148 8.55468C11.1523 8.52863 7.08984 8.52863 3.02734 8.55468C3.85417 9.38152 4.68098 10.2083 5.50781 11.0352C5.75512 11.5298 5.67047 11.953 5.25391 12.3047C4.85004 12.5116 4.47246 12.4725 4.12109 12.1875C2.82552 10.8919 1.52995 9.59636 0.234375 8.30078C0.139075 8.17468 0.0544391 8.04449 -0.0195312 7.91015C-0.0195312 7.72785 -0.0195312 7.54558 -0.0195312 7.36328C0.0505793 7.24984 0.122194 7.13265 0.195312 7.01171C1.50391 5.70312 2.8125 4.39453 4.12109 3.08593C4.52754 2.76373 4.94422 2.75071 5.37109 3.04687C5.68059 3.4098 5.72617 3.80693 5.50781 4.23828C4.68098 5.06511 3.85417 5.89191 3.02734 6.71875C7.06379 6.73175 11.1003 6.7448 15.1367 6.75781C17.2359 6.97031 18.7268 8.03152 19.6094 9.9414C19.7768 10.3903 19.9005 10.846 19.9805 11.3086Z" fill="#333333"/>
</g>
<defs>
<clipPath id="clip0_345_5497">
<rect width="20" height="20" fill="white"/>
</clipPath>
</defs>
</svg>
