<svg width="22" height="16" viewBox="0 0 22 16" fill="none" xmlns="http://www.w3.org/2000/svg">
<path d="M3.53205 0.0595427C3.38064 0.11327 3.0827 0.386791 2.22306 1.26597C0.37679 3.15619 0.0495411 3.51763 0.0153509 3.71789C-0.0969881 4.29424 0.425633 4.78755 0.982444 4.63126C1.15339 4.58241 1.32923 4.42611 2.06676 3.66905C2.55031 3.17573 2.96059 2.77033 2.98501 2.77033C3.00455 2.77033 3.0192 5.62277 3.0192 9.11505V15.4549L3.13154 15.6161C3.52228 16.2022 4.37704 16.0361 4.53334 15.3425C4.56264 15.2351 4.58218 12.4901 4.58218 8.94898L4.58706 2.74591L5.47601 3.65928C6.22331 4.42611 6.39914 4.58241 6.57498 4.63126C7.19528 4.81197 7.74721 4.18678 7.49323 3.58601C7.41996 3.41018 4.33796 0.210956 4.14748 0.11327C3.93745 0.000930786 3.73719 -0.0137224 3.53205 0.0595427Z" fill="white"/>
<path d="M9.94511 0.0448881C9.7302 0.1035 9.49087 0.3526 9.42249 0.591931C9.33945 0.909411 9.48598 1.28062 9.77416 1.45157C9.92557 1.54437 10.0672 1.54926 15.6256 1.54926H21.3207L21.4818 1.43692C21.7163 1.28062 21.8335 1.0999 21.8579 0.855683C21.8921 0.572394 21.7456 0.279335 21.4965 0.127921L21.3109 0.010698L15.7184 0.000929356C12.1235 -0.00395489 10.0623 0.010698 9.94511 0.0448881Z" fill="white"/>
<path d="M9.80845 4.91453C9.34932 5.15874 9.2614 5.74486 9.62773 6.13072C9.71076 6.21864 9.85729 6.31144 9.95497 6.33586C10.0624 6.36517 11.7573 6.3847 14.4485 6.3847C18.5611 6.3847 18.7809 6.37982 18.9714 6.2919C19.2694 6.15514 19.4061 5.93535 19.4061 5.59345C19.4061 5.28574 19.3133 5.11967 19.0398 4.92918L18.8786 4.82173H14.429C10.1894 4.82173 9.96963 4.82661 9.80845 4.91453Z" fill="white"/>
<path d="M9.88161 9.67673C9.27595 9.95025 9.23199 10.7708 9.80834 11.0785C9.96952 11.1664 10.1551 11.1713 13.2078 11.1713H16.4363L16.6024 11.059C17.0908 10.7317 17.1202 10.1212 16.6659 9.77441L16.4852 9.63277L13.2567 9.623C10.6289 9.61323 9.99883 9.623 9.88161 9.67673Z" fill="white"/>
<path d="M9.77414 14.5415C9.1929 14.8932 9.32966 15.7772 9.99393 15.958C10.1356 15.9921 10.795 16.0068 12.0942 15.997C13.8818 15.9824 13.9942 15.9775 14.1505 15.8847C14.3996 15.7382 14.5119 15.5574 14.5315 15.2644C14.5559 14.9469 14.4142 14.6685 14.1554 14.5366C13.9991 14.4487 13.8379 14.4438 11.9574 14.4438C10.033 14.4438 9.92067 14.4487 9.77414 14.5415Z" fill="white"/>
</svg>
