<svg width="18" height="18" viewBox="0 0 18 18" fill="none" xmlns="http://www.w3.org/2000/svg">
<path d="M8.54003 1.07926C8.71276 0.673971 9.28724 0.673971 9.45997 1.07926L11.5688 6.02732C11.6411 6.19693 11.8008 6.31299 11.9844 6.32932L17.342 6.80588C17.7808 6.84492 17.9583 7.39128 17.6263 7.6808L13.572 11.2154C13.4331 11.3366 13.3721 11.5244 13.4133 11.7041L14.6156 16.9467C14.7141 17.3761 14.2493 17.7138 13.8714 17.4874L9.2569 14.7239C9.09873 14.6291 8.90127 14.6291 8.7431 14.7239L4.12864 17.4874C3.75068 17.7138 3.28592 17.3761 3.3844 16.9467L4.58674 11.7041C4.62795 11.5244 4.56693 11.3366 4.42796 11.2154L0.373734 7.6808C0.0416577 7.39128 0.219182 6.84492 0.65801 6.80588L6.01556 6.32932C6.19919 6.31299 6.35894 6.19692 6.43122 6.02732L8.54003 1.07926Z" fill="#F7CF62"/>
</svg>
