<svg width="35" height="35" viewBox="0 0 35 35" fill="none" xmlns="http://www.w3.org/2000/svg">
<path d="M15.8357 0.0438995C11.4481 0.495983 7.54644 2.46186 4.54834 5.72235C0.318131 10.3185 -1.09878 16.9834 0.87942 22.9837C1.77611 25.7031 3.19303 27.9772 5.26706 30.0184C8.01875 32.7241 11.3591 34.3475 15.3566 34.916C16.1711 35.0325 18.8612 35.0256 19.7032 34.9092C23.7143 34.3543 27.171 32.6419 29.9501 29.8266C32.7155 27.0251 34.3377 23.703 34.9127 19.6616C35.0291 18.8533 35.0291 16.1545 34.9127 15.3463C34.5842 13.0379 33.9134 10.9556 32.8935 9.11298C32.0926 7.65398 31.1617 6.40733 29.9501 5.18122C27.2258 2.42076 23.8375 0.708328 19.9427 0.132946C19.1008 0.00965118 16.6708 -0.0451469 15.8357 0.0438995ZM25.6925 10.6131C25.9937 10.7432 26.1374 11.0309 26.1374 11.5104C26.1374 11.9488 23.242 25.7031 23.0914 26.0045C22.8724 26.4292 22.4001 26.5867 21.9209 26.4086C21.7566 26.347 20.1755 25.2031 17.8618 23.4838L17.2869 23.0591L16.0479 24.2441C15.1375 25.1072 14.7405 25.4497 14.5763 25.4839C14.453 25.5113 14.3367 25.5181 14.323 25.4976C14.3025 25.477 14.3504 24.4838 14.4325 23.2783L14.5763 21.1001L15.0622 20.6548C15.3224 20.4082 17.1773 18.73 19.1761 16.9217C21.1817 15.1065 22.8176 13.5859 22.8176 13.5311C22.8176 13.4557 22.7423 13.4283 22.578 13.4352C22.3795 13.442 21.3665 14.0517 17.2595 16.634C14.4736 18.3944 12.1531 19.8329 12.1121 19.8329C11.9272 19.8329 7.60805 18.4424 7.4027 18.3191C6.96462 18.0451 7.06045 17.6409 7.62858 17.319C7.77917 17.2368 8.86753 16.7916 10.0517 16.3395C11.2359 15.8805 13.4742 15.0175 15.0143 14.4215C16.5613 13.8256 19.313 12.7639 21.1406 12.0584C25.1449 10.5103 25.1039 10.524 25.3024 10.5172C25.3845 10.5172 25.5625 10.5583 25.6925 10.6131Z" fill="#3392FF"/>
</svg>
