<svg width="52" height="15" viewBox="0 0 52 15" fill="none" xmlns="http://www.w3.org/2000/svg">
<g style="mix-blend-mode:luminosity" opacity="0.75">
<path fill-rule="evenodd" clip-rule="evenodd" d="M20.3636 0.3915C22.0736 -0.285339 24.2229 -0.125117 25.5913 1.19117C25.1654 1.85865 24.7369 2.52477 24.3084 3.19226C23.5515 2.53813 22.5035 2.20838 21.5197 2.46869C20.3208 2.75308 19.5386 4.07332 19.7428 5.26411C19.903 6.07578 20.732 6.58974 21.5237 6.58974C22.4381 6.66583 23.2938 6.23198 23.9947 5.68329C24.3231 6.3214 24.6167 6.97553 24.9011 7.63367C24.0347 8.30115 23.0295 8.84184 21.9215 8.93257C20.6092 9.05674 19.1554 8.88451 18.1235 7.98877C17.3492 7.31864 16.9581 6.27736 16.9901 5.26543C16.9981 3.16157 18.4145 1.16044 20.3636 0.3915ZM0.520678 1.65707C0.421917 1.01092 0.807707 0.288719 1.48587 0.180574C2.13334 0.124519 2.78477 0.169897 3.43224 0.161874C3.18931 1.86263 2.91563 3.55935 2.67397 5.26011C2.55118 6.22528 2.68199 7.31463 3.3855 8.04485C3.73262 8.42932 4.23191 8.59886 4.68711 8.81644C3.67121 8.82045 2.65532 8.82715 1.64071 8.81511C1.04536 8.80575 0.52738 8.26512 0.52738 7.67373C0.515352 5.66859 0.531398 3.66217 0.520678 1.65707ZM9.94154 2.35924C10.0403 1.62369 10.1511 0.890776 10.2672 0.15923C12.5888 0.15923 14.9103 0.151207 17.2318 0.163235C17.1517 0.711904 17.0823 1.26189 16.9781 1.80657C16.9581 1.97209 16.8206 2.08157 16.7218 2.20436C15.3281 3.67685 13.9437 5.15997 12.5487 6.63246C13.5539 6.63246 14.5605 6.63112 15.567 6.63246C15.778 7.42142 16.1584 8.14763 16.6364 8.8071C14.0225 8.84982 11.406 8.83381 8.79346 8.81512C8.87221 8.3332 8.92697 7.84195 9.09518 7.38001C9.27273 6.89678 9.62382 6.50831 9.97222 6.14121C11.187 4.88766 12.3792 3.61279 13.598 2.36459C12.3792 2.35656 11.1603 2.36724 9.94154 2.35924ZM28.8553 0.16055C29.767 0.15521 30.6788 0.156548 31.592 0.159218C32.1473 3.04274 32.6773 5.93159 33.2099 8.81912C32.3769 8.81643 31.5399 8.87383 30.7109 8.79508C30.6308 8.43332 30.6014 8.06218 30.552 7.69508C29.5948 7.69641 28.6377 7.69238 27.6818 7.69776C27.5216 8.0675 27.3628 8.43865 27.2012 8.80845C26.3629 8.80709 25.5245 8.82176 24.6875 8.79773C26.0559 5.90888 27.4669 3.04006 28.8553 0.16055ZM28.4735 5.75938C29.0849 5.76206 29.695 5.76206 30.3064 5.75804C30.1515 4.65137 30.03 3.54069 29.8658 2.43534C29.4013 3.54201 28.9434 4.65403 28.4735 5.75938ZM35.1616 0.213948C36.5326 0.201946 37.9036 0.208608 39.2746 0.207287C40.1103 0.213948 41.0221 0.414208 41.6068 1.05498C42.1728 1.68506 42.1995 2.62221 41.9566 3.39516C41.7069 4.27627 41.0581 4.96641 40.3372 5.49774C40.8018 6.59909 41.2571 7.70311 41.7003 8.81379C40.9767 8.82979 40.2505 8.84982 39.5283 8.81512C39.0237 8.76573 38.6859 8.30785 38.5377 7.85795C38.3268 7.29059 38.1226 6.72055 37.9157 6.15187C37.5739 6.14919 37.2335 6.14919 36.8944 6.14919C36.7529 7.04096 36.6181 7.93269 36.4685 8.82313C35.6008 8.83381 34.7345 8.83381 33.868 8.82177C34.2899 5.95162 34.7304 3.08278 35.1616 0.213948ZM37.2081 4.08267C37.8262 4.04532 38.5898 4.2402 39.0677 3.73025C39.4362 3.3725 39.4509 2.65162 38.9436 2.41265C38.4683 2.25512 37.957 2.33121 37.4671 2.31384C37.3737 2.90258 37.2935 3.49264 37.2081 4.08267ZM42.4919 8.82045C42.9057 5.9316 43.3369 3.04539 43.7748 0.16055C44.9429 0.156545 46.1097 0.156544 47.2778 0.157906C48.2082 0.163232 49.1787 0.406185 49.8902 1.03495C50.6498 1.67974 51.0583 2.67163 51.0957 3.65683C51.1731 5.15331 50.5043 6.65781 49.3629 7.62568C48.4258 8.43197 47.1816 8.82715 45.9548 8.82847C44.8001 8.82714 43.6453 8.83782 42.4919 8.82045ZM46.0763 2.30586C45.8587 3.75697 45.6291 5.20671 45.4061 6.65781C46.0389 6.65915 46.7344 6.72858 47.2831 6.34143C48.363 5.60321 48.7676 3.91314 47.9853 2.82913C47.5434 2.22975 46.7344 2.29652 46.0763 2.30586ZM24.3004 12.1339C24.4018 12.1312 24.6048 12.1245 24.7062 12.1205C24.8277 12.3421 24.9465 12.5637 25.0546 12.7933C24.6782 12.7426 24.5033 12.4048 24.3004 12.1339ZM33.0177 12.537C32.7974 12.4449 33.0284 12.1685 33.0911 12.0297C33.1872 12.0844 33.3808 12.1952 33.4769 12.25C33.3461 12.3861 33.25 12.6811 33.0177 12.537ZM35.745 12.1539C36.0053 11.9229 36.2843 12.3314 36.0187 12.521C35.7744 12.7452 35.4406 12.3034 35.745 12.1539ZM39.7752 12.5023C39.5403 12.2914 39.9087 12.1539 40.0342 12.0137C40.093 12.1058 40.2131 12.2887 40.2719 12.3808C40.1157 12.4502 39.9421 12.6732 39.7752 12.5023ZM0.668872 14.9306C0.807708 14.0108 0.929176 13.0896 1.06004 12.1712C1.58467 12.2166 2.21209 12.0257 2.65532 12.3902C2.98635 12.7199 2.75144 13.2232 2.46573 13.4981C2.85422 13.8226 2.84218 14.4593 2.41101 14.7423C1.88638 15.0507 1.24558 14.8918 0.668872 14.9306ZM1.41646 12.5023C1.37106 12.7933 1.32701 13.0857 1.28829 13.3794C1.55932 13.3673 1.83564 13.3873 2.10265 13.3286C2.41367 13.2418 2.55652 12.7399 2.2388 12.5757C1.97316 12.4903 1.68877 12.5196 1.41646 12.5023ZM1.24156 13.7118C1.19888 14.0041 1.16012 14.2991 1.12279 14.5942C1.5513 14.5781 2.30022 14.6876 2.33892 14.0749C2.2802 13.5502 1.60337 13.7518 1.24156 13.7118ZM7.64407 12.2126C7.73349 12.1899 7.91372 12.1472 8.00451 12.1245C7.93639 12.7639 7.84565 13.402 7.72414 14.0335C8.18206 13.6397 8.44903 12.8788 9.14858 12.9175C8.90426 13.2191 8.65061 13.5142 8.39833 13.8079C8.58788 14.1923 8.77609 14.5781 8.94698 14.9706C8.3903 15.044 8.32888 14.4233 8.10327 14.0709C7.74283 14.3245 7.72282 14.9105 7.2529 14.9893C7.36105 14.0615 7.47587 13.131 7.64407 12.2126ZM9.66518 12.2139C9.75596 12.1926 9.93752 12.1499 10.0283 12.1285C9.90816 13.0496 9.80535 13.9761 9.6318 14.8892C9.54103 14.9106 9.35814 14.9533 9.26735 14.9747C9.39287 14.0535 9.49031 13.127 9.66518 12.2139ZM25.343 14.9266C25.5005 14.0242 25.5672 13.107 25.7528 12.2113C25.8449 12.1899 26.0291 12.1459 26.1213 12.1245C25.9944 13.0643 25.8623 14.0028 25.7261 14.9399C25.5966 14.9346 25.4698 14.9306 25.343 14.9266ZM20.461 12.8881C20.5772 12.6638 20.6653 12.4062 20.9256 12.3074C20.9149 12.5196 20.9002 12.7332 20.8829 12.9482C21.1178 12.9535 21.3528 12.9588 21.5891 12.9722C21.501 13.35 21.1071 13.2659 20.8188 13.3113C20.7641 13.7291 20.704 14.1469 20.6813 14.5688C20.9349 14.5768 21.1899 14.5835 21.4462 14.5888C21.2874 15.0587 20.4437 15.1095 20.2888 14.6169C20.2848 14.191 20.3809 13.7745 20.4464 13.358C20.3502 13.3046 20.158 13.2005 20.0618 13.147C20.1927 13.0576 20.3248 12.9709 20.461 12.8881ZM31.401 12.8907C31.5158 12.6678 31.592 12.3968 31.8696 12.3154C31.8563 12.5236 31.8389 12.7319 31.8202 12.9401C32.0552 12.9962 32.6506 12.8133 32.4049 13.2339C32.1913 13.2752 31.9737 13.2873 31.7588 13.3113C31.7361 13.7251 31.5465 14.1576 31.6854 14.5648C31.9163 14.5848 32.1486 14.5955 32.3822 14.5955C32.2167 15.0574 31.3757 15.1068 31.2301 14.6169C31.2195 14.1857 31.3263 13.7638 31.3797 13.3406C31.2822 13.2926 31.0873 13.1991 30.9898 13.1511C31.1234 13.0603 31.2609 12.9735 31.401 12.8907ZM3.48564 13.1324C3.85543 12.7613 4.42679 12.9161 4.86064 13.0696C4.75919 13.6757 4.70447 14.2885 4.60836 14.8945C4.4495 14.9746 4.31731 14.9292 4.21454 14.757C3.90881 14.9693 3.37352 15.1215 3.17462 14.697C3.01973 14.1777 3.11188 13.5395 3.48564 13.1324ZM3.73796 13.394C3.44961 13.7652 3.35482 14.3606 3.71927 14.717C3.90617 14.5928 4.13976 14.5141 4.27063 14.3218C4.38275 13.9761 4.39342 13.609 4.42013 13.2499C4.18918 13.2686 3.90083 13.1791 3.73796 13.394ZM10.8106 12.9829C11.187 12.812 11.6062 12.9468 11.9773 13.0643C11.8879 13.6851 11.7998 14.3085 11.733 14.9332C11.653 14.9346 11.4901 14.9359 11.4087 14.9373C11.418 14.8745 11.4354 14.749 11.4447 14.6863C11.167 14.8451 10.8413 15.0828 10.5089 14.9239C10.2059 14.7624 10.1965 14.3739 10.2259 14.0775C10.2672 13.661 10.4088 13.1831 10.8106 12.9829ZM10.8974 13.35C10.6397 13.597 10.5957 13.9881 10.6103 14.3272C10.6144 14.4874 10.7839 14.753 10.9681 14.6249C11.5609 14.4887 11.4927 13.7665 11.5462 13.2992C11.3325 13.2512 11.0736 13.1671 10.8974 13.35ZM12.7943 13.1751C13.0627 13.0016 13.367 12.9041 13.6821 12.8574C13.6768 12.9441 13.6661 13.1164 13.6607 13.2031C13.355 13.2792 12.9665 13.3206 12.8237 13.6517C12.7049 14.0535 12.7102 14.4833 12.5994 14.8879C12.5073 14.9105 12.3231 14.9546 12.2323 14.9773C12.3204 14.3432 12.3765 13.7024 12.5087 13.0763C12.5647 13.0229 12.6782 12.9148 12.7356 12.8601C12.7503 12.9388 12.7796 13.0963 12.7943 13.1751ZM14.0051 13.2418C14.3442 12.7573 15.005 12.8881 15.4776 13.0683C15.3828 13.6677 15.3294 14.2751 15.224 14.8732C15.1492 14.9052 14.9997 14.9679 14.925 15C14.9303 14.9186 14.9383 14.7557 14.9423 14.6743C14.6513 14.8692 14.2615 15.1161 13.9237 14.8745C13.5473 14.414 13.7208 13.7077 14.0051 13.2418ZM14.471 13.3033C14.0839 13.5729 13.8583 14.5194 14.4417 14.6609C15.0464 14.486 15.0291 13.7678 15.025 13.2605C14.8288 13.2165 14.6446 13.2299 14.471 13.3033ZM16.021 12.9014C16.1397 12.9709 16.2586 13.0389 16.3787 13.111C16.6297 12.9775 16.906 12.9108 17.1864 12.8641C17.1744 12.9788 17.1623 13.0937 17.1503 13.2098C16.8406 13.2766 16.4468 13.3299 16.3187 13.6704C16.2052 14.0815 16.1825 14.5114 16.1131 14.9319C15.9836 14.9306 15.8554 14.9306 15.7273 14.9306C15.8314 14.2551 15.9181 13.5769 16.021 12.9014ZM17.8405 12.9548C18.0688 12.8667 18.3278 12.8654 18.564 12.9268C18.9245 13.0416 19.05 13.4715 19.0032 13.8132C18.9619 14.2364 18.8203 14.733 18.3985 14.9226C18.0101 15.0681 17.4186 15.0174 17.2905 14.5461C17.149 13.9908 17.2931 13.2405 17.8405 12.9548ZM17.9486 13.2939C17.6536 13.5422 17.5989 13.9814 17.6389 14.3446C17.6723 14.5955 17.9433 14.729 18.1742 14.6396C18.5827 14.4527 18.6402 13.9253 18.6121 13.5302C18.576 13.2191 18.1742 13.091 17.9486 13.2939ZM22.2552 12.9695C22.5302 12.8587 22.872 12.8414 23.1403 12.9842C23.5007 13.2191 23.4847 13.7104 23.4099 14.0856C23.3419 14.4647 23.1216 14.8812 22.7105 14.9639C22.318 15.0734 21.7866 14.9226 21.7145 14.4673C21.6371 13.9361 21.7453 13.2579 22.2552 12.9695ZM22.3727 13.3113C22.0804 13.5876 22.0309 14.0508 22.111 14.4273C22.2191 14.7384 22.6704 14.7236 22.8466 14.482C23.0562 14.1777 23.1163 13.7692 23.0268 13.4141C22.916 13.1551 22.5649 13.1391 22.3727 13.3113ZM26.9129 12.9522C27.2854 12.816 27.8407 12.852 27.9995 13.2819C28.2105 13.9227 27.9435 14.9733 27.1318 14.988C26.73 15.0574 26.3268 14.7677 26.3028 14.3552C26.2815 13.8453 26.3976 13.1898 26.9129 12.9522ZM27.0277 13.2792C26.7033 13.5489 26.6205 14.0615 26.7394 14.4513C26.8889 14.8011 27.4122 14.6769 27.5376 14.3672C27.6698 14.0482 27.7779 13.6463 27.5897 13.3299C27.4536 13.1591 27.1946 13.1617 27.0277 13.2792ZM36.7783 13.2018C37.116 12.9214 37.6513 12.7546 37.921 13.2178C38.184 13.0109 38.5538 12.7759 38.8808 13.0015C39.1892 13.2726 39.045 13.7278 39.021 14.0815C38.9289 14.4353 39.0504 15.0334 38.5097 14.9746C38.5711 14.3939 38.726 13.8159 38.6472 13.2285C38.3989 13.2939 38.0772 13.3086 37.965 13.5836C37.8115 14.0014 37.8462 14.462 37.7234 14.8879C37.6366 14.9105 37.4604 14.9546 37.3723 14.9773C37.4124 14.458 37.5913 13.9347 37.5298 13.4181C37.391 13.0509 36.9452 13.3567 36.8183 13.5916C36.6982 14.0148 36.6955 14.4593 36.6007 14.8892C36.5086 14.9105 36.3244 14.9533 36.2309 14.976C36.3217 14.3245 36.3711 13.6637 36.5193 13.0229C36.582 12.9842 36.7075 12.9054 36.7702 12.8654C36.7729 12.9495 36.7769 13.1177 36.7783 13.2018ZM5.40665 13.0216C5.47072 12.9842 5.60158 12.9108 5.66565 12.8734C5.66431 12.9562 5.65899 13.1204 5.65762 13.2031C5.92997 13.0443 6.22498 12.8253 6.56006 12.9228C6.83506 12.9762 6.93518 13.2899 6.91385 13.5382C6.88845 13.9921 6.83104 14.4486 6.72162 14.8905C6.62814 14.9119 6.44125 14.9533 6.34781 14.9746C6.39319 14.4527 6.54939 13.9374 6.50936 13.4114C6.31312 13.0643 5.85122 13.3353 5.69902 13.5916C5.57887 14.0135 5.58554 14.4607 5.47874 14.8865C5.38928 14.9092 5.20777 14.9533 5.1183 14.9746C5.20243 14.3218 5.26517 13.6637 5.40665 13.0216ZM28.38 12.9108C28.4775 12.9295 28.6737 12.9695 28.7712 12.9882C28.9194 13.4835 28.9728 13.9988 29.0769 14.5047C29.3092 13.9827 29.5574 13.4688 29.8017 12.9535C29.9099 12.9535 30.1248 12.9522 30.2316 12.9508C29.8819 13.6156 29.5508 14.2898 29.2104 14.9586C29.0822 14.9573 28.9554 14.9573 28.8299 14.9586C28.6817 14.2751 28.5188 13.5956 28.38 12.9108ZM32.8681 12.9575C32.9669 12.9562 33.1645 12.9535 33.2646 12.9535C33.1552 13.5929 33.1058 14.2431 32.9736 14.8799C32.8535 14.9186 32.7346 14.9533 32.6132 14.9826C32.6639 14.3032 32.792 13.633 32.8681 12.9575ZM33.7239 12.9722C34.2298 12.9255 34.7411 12.9562 35.2497 12.9682C34.8626 13.5329 34.4221 14.0588 33.9949 14.5928C34.3273 14.5955 34.661 14.5968 34.9948 14.6035C34.9601 14.6796 34.892 14.8345 34.8572 14.9119C34.3473 14.9546 33.8333 14.9266 33.3234 14.9172C33.7198 14.3525 34.1684 13.8279 34.5996 13.2912C34.2618 13.2926 33.9241 13.2926 33.5877 13.2899C33.6211 13.2098 33.6892 13.0509 33.7239 12.9722ZM35.6089 12.9962C35.7023 12.9735 35.8905 12.9281 35.984 12.9054C35.8812 13.5663 35.8264 14.2364 35.6836 14.8892C35.5928 14.9119 35.4099 14.9559 35.3191 14.9787C35.4099 14.3165 35.466 13.649 35.6089 12.9962ZM39.6684 12.9562C39.7673 12.9548 39.9661 12.9548 40.0649 12.9548C39.9648 13.6116 39.8713 14.2684 39.7819 14.9279C39.6845 14.9279 39.4896 14.9292 39.3921 14.9292C39.4896 14.2725 39.5884 13.6156 39.6684 12.9562Z" fill="#00358D"/>
<path fill-rule="evenodd" clip-rule="evenodd" d="M3.88828 5.36435C4.14595 3.62758 4.3742 1.88542 4.65321 0.151307C6.12301 0.145968 7.59148 0.141963 9.06125 0.155312C8.69815 2.69175 8.32969 5.22683 7.95056 7.76194C7.22034 7.7686 6.49011 7.78465 5.75988 7.75926C5.15782 7.74457 4.51573 7.52033 4.16195 7.00637C3.85623 6.52308 3.80151 5.91971 3.88828 5.36435Z" fill="#FF4103"/>
</g>
</svg>
