<svg width="51" height="15" viewBox="0 0 51 15" fill="none" xmlns="http://www.w3.org/2000/svg">
<path fill-rule="evenodd" clip-rule="evenodd" d="M20.3963 0.389786C22.0989 -0.28409 24.2388 -0.124569 25.6011 1.18596C25.1771 1.85051 24.7505 2.51372 24.3238 3.17829C23.5702 2.52702 22.5269 2.19872 21.5473 2.45788C20.3537 2.74102 19.5749 4.0555 19.7782 5.24107C19.9377 6.04919 20.7631 6.5609 21.5513 6.5609C22.4617 6.63666 23.3137 6.20471 24.0115 5.65841C24.3384 6.29373 24.6308 6.945 24.9139 7.60026C24.0513 8.26482 23.0505 8.80313 21.9473 8.89347C20.6408 9.0171 19.1934 8.84563 18.166 7.9538C17.3951 7.28661 17.0057 6.24988 17.0376 5.24238C17.0456 3.14773 18.4558 1.15536 20.3963 0.389786ZM0.64024 1.64982C0.541912 1.0065 0.926013 0.287455 1.60121 0.179783C2.24584 0.123974 2.89443 0.169154 3.53906 0.161166C3.29719 1.85448 3.0247 3.54377 2.78411 5.23708C2.66186 6.19804 2.7921 7.28261 3.49253 8.00964C3.83812 8.39242 4.33523 8.56122 4.78843 8.77785C3.77699 8.78184 2.76554 8.78852 1.75537 8.77653C1.16262 8.76721 0.646912 8.22894 0.646912 7.64014C0.634937 5.64378 0.650913 3.64614 0.64024 1.64982ZM10.0199 2.34892C10.1182 1.61659 10.2285 0.886877 10.3441 0.158533C12.6555 0.158533 14.9669 0.150545 17.2782 0.16252C17.1984 0.708788 17.1293 1.25637 17.0256 1.79867C17.0057 1.96346 16.8688 2.07246 16.7705 2.19472C15.3829 3.66076 14.0045 5.13738 12.6156 6.60343C13.6164 6.60343 14.6186 6.6021 15.6208 6.60343C15.8308 7.38894 16.2095 8.11197 16.6854 8.76855C14.083 8.81108 11.4779 8.79515 8.87682 8.77654C8.95522 8.29673 9.00974 7.80762 9.17721 7.34771C9.35398 6.86659 9.70354 6.47982 10.0504 6.11433C11.2599 4.86627 12.4468 3.59698 13.6603 2.35424C12.4468 2.34625 11.2333 2.35688 10.0199 2.34892ZM28.8508 0.159847C29.7586 0.154531 30.6664 0.155863 31.5755 0.158521C32.1284 3.02942 32.6561 5.90563 33.1864 8.78051C32.357 8.77784 31.5237 8.83499 30.6983 8.75659C30.6186 8.39641 30.5893 8.02689 30.5401 7.66139C29.5871 7.66272 28.6342 7.65871 27.6825 7.66407C27.523 8.03219 27.3649 8.40172 27.204 8.7699C26.3694 8.76854 25.5346 8.78314 24.7013 8.75922C26.0636 5.88302 27.4685 3.02676 28.8508 0.159847ZM28.4707 5.73417C29.0794 5.73684 29.6868 5.73684 30.2955 5.73284C30.1414 4.63102 30.0204 3.52519 29.857 2.42468C29.3944 3.5265 28.9385 4.63366 28.4707 5.73417ZM35.1295 0.213011C36.4946 0.201062 37.8596 0.207695 39.2246 0.206379C40.0566 0.213012 40.9644 0.412395 41.5466 1.05036C42.1101 1.67769 42.1367 2.61073 41.8948 3.3803C41.6462 4.25755 41.0003 4.94467 40.2825 5.47368C40.7451 6.5702 41.1983 7.6694 41.6396 8.77521C40.9192 8.79114 40.1962 8.81108 39.4771 8.77654C38.9747 8.72736 38.6384 8.27149 38.4909 7.82356C38.2809 7.25868 38.0776 6.69114 37.8716 6.12495C37.5313 6.12227 37.1924 6.12228 36.8548 6.12228C36.7139 7.01014 36.5797 7.89796 36.4307 8.78451C35.5668 8.79515 34.7043 8.79515 33.8416 8.78316C34.2616 5.92557 34.7003 3.06929 35.1295 0.213011ZM37.1671 4.0648C37.7825 4.02761 38.5427 4.22164 39.0186 3.71393C39.3854 3.35774 39.4 2.64001 38.8949 2.40209C38.4218 2.24525 37.9127 2.32101 37.4249 2.30372C37.3319 2.88987 37.2522 3.47736 37.1671 4.0648ZM42.4278 8.78184C42.8398 5.90564 43.2691 3.03206 43.7051 0.159847C44.868 0.15586 46.0297 0.155859 47.1927 0.157215C48.119 0.162518 49.0853 0.404408 49.7937 1.03042C50.55 1.67239 50.9567 2.65993 50.9939 3.64082C51.071 5.13075 50.4051 6.62867 49.2687 7.59231C48.3357 8.39507 47.097 8.78852 45.8755 8.78983C44.7258 8.7885 43.5761 8.79913 42.4278 8.78184ZM45.9965 2.29577C45.7798 3.74052 45.5512 5.18392 45.3292 6.62867C45.9592 6.63 46.6517 6.69913 47.198 6.31367C48.2732 5.57868 48.676 3.89601 47.8971 2.81674C47.4571 2.21999 46.6517 2.28647 45.9965 2.29577ZM24.3158 12.0807C24.4169 12.0781 24.6189 12.0714 24.7199 12.0674C24.8408 12.2881 24.9591 12.5087 25.0668 12.7373C24.692 12.6868 24.5179 12.3505 24.3158 12.0807ZM32.995 12.4821C32.7757 12.3904 33.0056 12.1153 33.0681 11.9771C33.1638 12.0315 33.3565 12.1419 33.4522 12.1964C33.322 12.3319 33.2263 12.6256 32.995 12.4821ZM35.7104 12.1007C35.9696 11.8707 36.2473 12.2774 35.9829 12.4662C35.7396 12.6895 35.4074 12.2495 35.7104 12.1007ZM39.723 12.4476C39.4891 12.2376 39.8559 12.1007 39.9808 11.9611C40.0393 12.0528 40.159 12.2349 40.2174 12.3266C40.0619 12.3957 39.8891 12.6177 39.723 12.4476ZM0.787785 14.8652C0.926014 13.9495 1.04695 13.0323 1.17724 12.1179C1.69957 12.1631 2.32425 11.9731 2.76554 12.3359C3.09512 12.6642 2.86124 13.1653 2.57678 13.4391C2.96357 13.7621 2.95158 14.396 2.5223 14.6778C1.99997 14.9849 1.36196 14.8267 0.787785 14.8652ZM1.5321 12.4476C1.4869 12.7373 1.44304 13.0284 1.4045 13.3208C1.67433 13.3088 1.94945 13.3287 2.21528 13.2703C2.52494 13.1839 2.66717 12.6841 2.35084 12.5207C2.08636 12.4356 1.80322 12.4648 1.5321 12.4476ZM1.35796 13.6517C1.31547 13.9428 1.27689 14.2365 1.23971 14.5303C1.66635 14.5143 2.412 14.6233 2.45053 14.0133C2.39206 13.4909 1.7182 13.6916 1.35796 13.6517ZM7.73246 12.1591C7.82148 12.1365 8.00093 12.094 8.09132 12.0714C8.0235 12.7081 7.93315 13.3434 7.81218 13.9721C8.26809 13.58 8.53389 12.8224 9.23037 12.8609C8.98713 13.1613 8.73459 13.455 8.48341 13.7474C8.67213 14.1302 8.85952 14.5143 9.02966 14.9051C8.47542 14.9782 8.41427 14.3602 8.18965 14.0093C7.83078 14.2618 7.81086 14.8453 7.343 14.9237C7.45067 14 7.56499 13.0736 7.73246 12.1591ZM9.74472 12.1605C9.8351 12.1392 10.0159 12.0967 10.1063 12.0754C9.98663 12.9925 9.88427 13.9149 9.71149 14.824C9.62111 14.8453 9.43902 14.8878 9.34863 14.9091C9.4736 13.992 9.57061 13.0696 9.74472 12.1605ZM25.3539 14.8613C25.5107 13.9628 25.5772 13.0497 25.762 12.1578C25.8536 12.1366 26.0371 12.0927 26.1288 12.0715C26.0025 13.0071 25.8709 13.9415 25.7353 14.8745C25.6064 14.8692 25.4802 14.8653 25.3539 14.8613ZM20.4933 12.8317C20.6089 12.6084 20.6967 12.3519 20.9558 12.2535C20.9452 12.4648 20.9306 12.6775 20.9133 12.8915C21.1472 12.8968 21.3811 12.9021 21.6164 12.9154C21.5287 13.2916 21.1366 13.2078 20.8495 13.253C20.795 13.669 20.7352 14.085 20.7126 14.505C20.9651 14.513 21.219 14.5196 21.4742 14.5249C21.316 14.9928 20.476 15.0433 20.3219 14.5529C20.3179 14.1289 20.4136 13.7142 20.4787 13.2995C20.383 13.2464 20.1916 13.1427 20.0959 13.0895C20.2262 13.0005 20.3577 12.9141 20.4933 12.8317ZM31.3854 12.8343C31.4997 12.6124 31.5755 12.3426 31.8519 12.2615C31.8387 12.4688 31.8214 12.6762 31.8028 12.8835C32.0367 12.9393 32.6295 12.7572 32.3849 13.1759C32.1723 13.2171 31.9556 13.2291 31.7416 13.253C31.7191 13.665 31.5303 14.0957 31.6685 14.501C31.8985 14.521 32.1298 14.5316 32.3623 14.5316C32.1975 14.9915 31.3602 15.0407 31.2153 14.5529C31.2047 14.1236 31.311 13.7036 31.3642 13.2823C31.2671 13.2344 31.0731 13.1414 30.976 13.0935C31.109 13.0031 31.2459 12.9167 31.3854 12.8343ZM3.59223 13.0749C3.96039 12.7054 4.52925 12.8596 4.9612 13.0124C4.8602 13.6158 4.80572 14.2259 4.71003 14.8293C4.55186 14.9091 4.42025 14.8639 4.31794 14.6924C4.01354 14.9038 3.48059 15.0553 3.28257 14.6326C3.12835 14.1156 3.2201 13.4803 3.59223 13.0749ZM3.84344 13.3354C3.55635 13.7049 3.46197 14.2977 3.82484 14.6526C4.01091 14.529 4.24348 14.4505 4.37377 14.2592C4.48541 13.9149 4.49603 13.5494 4.52262 13.1919C4.29269 13.2105 4.0056 13.1214 3.84344 13.3354ZM10.8851 12.926C11.2599 12.7559 11.6773 12.8902 12.0468 13.0071C11.9577 13.6252 11.87 14.2458 11.8035 14.8679C11.7238 14.8692 11.5616 14.8706 11.4806 14.8719C11.4899 14.8094 11.5072 14.6845 11.5164 14.622C11.24 14.7802 10.9157 15.0167 10.5847 14.8586C10.283 14.6978 10.2737 14.311 10.303 14.0159C10.3441 13.6012 10.485 13.1254 10.8851 12.926ZM10.9715 13.2916C10.715 13.5374 10.6711 13.9268 10.6857 14.2645C10.6897 14.424 10.8585 14.6885 11.0419 14.5609C11.6321 14.4253 11.5643 13.7062 11.6175 13.241C11.4048 13.1932 11.1469 13.1095 10.9715 13.2916ZM12.8602 13.1174C13.1273 12.9446 13.4303 12.8476 13.744 12.8011C13.7387 12.8875 13.7281 13.059 13.7228 13.1453C13.4184 13.2211 13.0316 13.2623 12.8894 13.5919C12.7711 13.992 12.7764 14.42 12.6661 14.8227C12.5744 14.8453 12.391 14.8892 12.3006 14.9117C12.3884 14.2804 12.4442 13.6424 12.5758 13.0191C12.6316 12.9659 12.7445 12.8582 12.8017 12.8038C12.8163 12.8822 12.8455 13.039 12.8602 13.1174ZM14.0657 13.1839C14.4033 12.7014 15.0612 12.8317 15.5317 13.0111C15.4373 13.6079 15.3842 14.2126 15.2792 14.8081C15.2047 14.84 15.0559 14.9024 14.9815 14.9343C14.9868 14.8533 14.9947 14.6911 14.9987 14.61C14.709 14.8041 14.3209 15.05 13.9846 14.8094C13.6098 14.3509 13.7826 13.6477 14.0657 13.1839ZM14.5295 13.245C14.1441 13.5135 13.9195 14.4559 14.5003 14.5967C15.1024 14.4226 15.0851 13.7076 15.0811 13.2025C14.8858 13.1586 14.7023 13.1719 14.5295 13.245ZM16.0727 12.845C16.1909 12.9141 16.3092 12.9819 16.4289 13.0536C16.6787 12.9207 16.9539 12.8543 17.233 12.8078C17.221 12.922 17.209 13.0364 17.1971 13.152C16.8887 13.2184 16.4966 13.2716 16.3691 13.6105C16.2561 14.0199 16.2335 14.4479 16.1644 14.8666C16.0354 14.8652 15.9078 14.8652 15.7803 14.8652C15.8839 14.1927 15.9703 13.5175 16.0727 12.845ZM17.8842 12.8981C18.1115 12.8104 18.3694 12.8091 18.6046 12.8702C18.9635 12.9845 19.0884 13.4125 19.0419 13.7528C19.0007 14.1741 18.8598 14.6685 18.4398 14.8573C18.0531 15.0021 17.4642 14.9516 17.3367 14.4825C17.1957 13.9295 17.3393 13.1826 17.8842 12.8981ZM17.9919 13.2357C17.6981 13.483 17.6437 13.9202 17.6835 14.2818C17.7168 14.5316 17.9866 14.6645 18.2165 14.5755C18.6232 14.3894 18.6804 13.8644 18.6525 13.471C18.6166 13.1613 18.2165 13.0337 17.9919 13.2357ZM22.2796 12.9127C22.5534 12.8024 22.8937 12.7852 23.1608 12.9274C23.5197 13.1613 23.5038 13.6504 23.4293 14.0239C23.3616 14.4014 23.1422 14.816 22.7329 14.8984C22.3421 15.0074 21.8131 14.8573 21.7413 14.404C21.6643 13.8751 21.7719 13.1998 22.2796 12.9127ZM22.3966 13.253C22.1055 13.5281 22.0563 13.9893 22.1361 14.3642C22.2437 14.6739 22.693 14.6592 22.8684 14.4186C23.0771 14.1156 23.1369 13.7089 23.0479 13.3554C22.9375 13.0975 22.588 13.0816 22.3966 13.253ZM26.9169 12.8955C27.2878 12.7599 27.8407 12.7958 27.9988 13.2237C28.2088 13.8617 27.943 14.9077 27.1349 14.9224C26.7349 14.9915 26.3334 14.7031 26.3095 14.2924C26.2883 13.7847 26.4039 13.132 26.9169 12.8955ZM27.0312 13.2211C26.7082 13.4896 26.6259 14 26.7442 14.3881C26.893 14.7363 27.414 14.6127 27.539 14.3043C27.6706 13.9867 27.7782 13.5866 27.5908 13.2716C27.4552 13.1015 27.1974 13.1041 27.0312 13.2211ZM36.7391 13.144C37.0754 12.8649 37.6084 12.6988 37.8769 13.16C38.1387 12.9539 38.5069 12.72 38.8325 12.9446C39.1395 13.2145 38.996 13.6677 38.9721 14.0199C38.8803 14.3721 39.0013 14.9676 38.463 14.9091C38.5241 14.3309 38.6783 13.7554 38.5999 13.1706C38.3527 13.2357 38.0324 13.2504 37.9207 13.5241C37.7679 13.9402 37.8024 14.3987 37.6802 14.8227C37.5937 14.8453 37.4183 14.8892 37.3306 14.9117C37.3705 14.3947 37.5486 13.8737 37.4874 13.3593C37.3492 12.9938 36.9053 13.2982 36.779 13.5321C36.6594 13.9535 36.6567 14.396 36.5624 14.824C36.4706 14.8453 36.2872 14.8878 36.1942 14.9104C36.2846 14.2618 36.3337 13.6039 36.4813 12.9659C36.5438 12.9274 36.6687 12.8489 36.7311 12.8091C36.7338 12.8928 36.7378 13.0603 36.7391 13.144ZM5.50483 12.9646C5.56861 12.9274 5.6989 12.8543 5.76269 12.8171C5.76136 12.8995 5.75606 13.0629 5.7547 13.1453C6.02586 12.9872 6.31958 12.7692 6.65319 12.8662C6.92698 12.9194 7.02667 13.2317 7.00543 13.479C6.98014 13.9308 6.92298 14.3854 6.81404 14.8253C6.72097 14.8466 6.53489 14.8878 6.44187 14.9091C6.48705 14.3894 6.64257 13.8764 6.60271 13.3527C6.40732 13.0071 5.94745 13.2769 5.79592 13.5321C5.6763 13.9521 5.68293 14.3974 5.5766 14.8214C5.48753 14.844 5.30682 14.8878 5.21774 14.9091C5.3015 14.2592 5.36397 13.6039 5.50483 12.9646ZM28.3776 12.8543C28.4747 12.8729 28.67 12.9127 28.7671 12.9313C28.9146 13.4244 28.9678 13.9375 29.0714 14.4412C29.3027 13.9215 29.5499 13.4098 29.7931 12.8968C29.9008 12.8968 30.1148 12.8955 30.2211 12.8942C29.8729 13.5561 29.5433 14.2272 29.2043 14.8931C29.0767 14.8918 28.9505 14.8918 28.8256 14.8931C28.678 14.2126 28.5159 13.5361 28.3776 12.8543ZM32.8461 12.9008C32.9445 12.8995 33.1412 12.8968 33.2409 12.8968C33.1319 13.5334 33.0827 14.1807 32.9511 14.8147C32.8315 14.8533 32.7132 14.8878 32.5923 14.9171C32.6428 14.2405 32.7704 13.5733 32.8461 12.9008ZM33.6981 12.9154C34.2019 12.8689 34.7109 12.8995 35.2173 12.9114C34.8318 13.4736 34.3932 13.9973 33.9679 14.529C34.2989 14.5316 34.6311 14.5329 34.9634 14.5396C34.9289 14.6153 34.8611 14.7695 34.8265 14.8466C34.3188 14.8892 33.8071 14.8612 33.2994 14.8519C33.6941 14.2897 34.1407 13.7674 34.57 13.233C34.2337 13.2344 33.8975 13.2344 33.5625 13.2317C33.5958 13.152 33.6635 12.9938 33.6981 12.9154ZM35.5748 12.9393C35.6679 12.9167 35.8553 12.8716 35.9483 12.8489C35.846 13.5069 35.7915 14.1741 35.6492 14.824C35.5589 14.8466 35.3768 14.8905 35.2864 14.9131C35.3768 14.2538 35.4326 13.5893 35.5748 12.9393ZM39.6167 12.8995C39.715 12.8981 39.9131 12.8981 40.0114 12.8981C39.9117 13.552 39.8187 14.206 39.7297 14.8626C39.6326 14.8626 39.4386 14.8639 39.3415 14.8639C39.4386 14.21 39.5369 13.556 39.6167 12.8995Z" fill="#00358D"/>
<path fill-rule="evenodd" clip-rule="evenodd" d="M3.99313 5.3409C4.24967 3.61173 4.47692 1.8772 4.75471 0.150675C6.21808 0.145359 7.68012 0.141371 9.14345 0.154662C8.78195 2.68 8.4151 5.20398 8.03763 7.72799C7.3106 7.73463 6.58357 7.75061 5.85653 7.72533C5.25711 7.7107 4.61783 7.48744 4.2656 6.97573C3.96122 6.49456 3.90674 5.89383 3.99313 5.3409Z" fill="#FF4103"/>
</svg>
