<svg width="47" height="15" viewBox="0 0 47 15" fill="none" xmlns="http://www.w3.org/2000/svg">
<path d="M20.3333 14.6854H16.577L18.9246 0.257801H22.6813L20.3333 14.6854ZM13.417 0.257801L9.83596 10.1812L9.41221 8.04433L9.4126 8.0451L8.14867 1.55684C8.14867 1.55684 7.99585 0.257801 6.36683 0.257801H0.446665L0.377197 0.502095C0.377197 0.502095 2.1876 0.878762 4.30635 2.15117L7.56978 14.6858H11.4835L17.4596 0.257801H13.417ZM42.9619 14.6854H46.411L43.4038 0.257415H40.3843C38.9899 0.257415 38.6503 1.33262 38.6503 1.33262L33.0481 14.6854H36.9638L37.7468 12.5423H42.5219L42.9619 14.6854ZM38.8286 9.58188L40.8022 4.18271L41.9126 9.58188H38.8286ZM33.3418 3.72731L33.8779 0.629065C33.8779 0.629065 32.2238 0 30.4994 0C28.6354 0 24.2088 0.814698 24.2088 4.77627C24.2088 8.50359 29.4042 8.5499 29.4042 10.5077C29.4042 12.4655 24.7441 12.1147 23.2061 10.8801L22.6477 14.1196C22.6477 14.1196 24.3249 14.9343 26.8875 14.9343C29.4509 14.9343 33.3179 13.6071 33.3179 9.99482C33.3179 6.24358 28.0758 5.89431 28.0758 4.26337C28.0762 2.63204 31.7344 2.8416 33.3418 3.72731Z" fill="#2566AF"/>
<path d="M9.4126 8.04475L8.14868 1.55649C8.14868 1.55649 7.99585 0.257446 6.36684 0.257446H0.446665L0.377197 0.50174C0.377197 0.50174 3.22266 1.09144 5.95196 3.30089C8.56162 5.4127 9.4126 8.04475 9.4126 8.04475Z" fill="#E6A540"/>
</svg>
