<svg width="47" height="15" viewBox="0 0 47 15" fill="none" xmlns="http://www.w3.org/2000/svg">
<g style="mix-blend-mode:luminosity" opacity="0.75">
<path d="M20.313 14.75H16.5402L18.8981 0.258934H22.6713L20.313 14.75ZM13.3663 0.258934L9.76951 10.226L9.3439 8.07969L9.34429 8.08047L8.07481 1.56369C8.07481 1.56369 7.92131 0.258934 6.28513 0.258934H0.338938L0.269165 0.504302C0.269165 0.504302 2.08752 0.882626 4.21559 2.16063L7.49337 14.7504H11.4243L17.4267 0.258934H13.3663ZM43.0411 14.75H46.5053L43.4849 0.258547H40.4521C39.0516 0.258547 38.7105 1.33848 38.7105 1.33848L33.0837 14.75H37.0166L37.8031 12.5975H42.5992L43.0411 14.75ZM38.8896 9.624L40.8719 4.2011L41.9871 9.624H38.8896ZM33.3787 3.7437L33.9171 0.631831C33.9171 0.631831 32.2557 0 30.5238 0C28.6516 0 24.2055 0.81828 24.2055 4.79727C24.2055 8.54097 29.4237 8.58749 29.4237 10.5539C29.4237 12.5203 24.7432 12.168 23.1985 10.928L22.6376 14.1817C22.6376 14.1817 24.3222 15 26.896 15C29.4706 15 33.3547 13.6669 33.3547 10.0388C33.3547 6.27103 28.0895 5.92023 28.0895 4.28211C28.0899 2.64362 31.7642 2.8541 33.3787 3.7437Z" fill="#2566AF"/>
<path d="M9.34429 8.08011L8.07481 1.56333C8.07481 1.56333 7.92131 0.258575 6.28513 0.258575H0.338938L0.269165 0.503943C0.269165 0.503943 3.12714 1.09624 5.86844 3.3154C8.48957 5.43649 9.34429 8.08011 9.34429 8.08011Z" fill="#E6A540"/>
</g>
</svg>
