<svg width="35" height="35" viewBox="0 0 35 35" fill="none" xmlns="http://www.w3.org/2000/svg">
<path d="M15.8368 0.0439034C10.3611 0.612419 5.56307 3.592 2.64727 8.23602C-1.48687 14.8116 -0.713433 23.5106 4.509 29.23C7.40427 32.4014 11.0182 34.2988 15.3577 34.9152C16.1654 35.0317 18.8553 35.0248 19.704 34.9152C23.667 34.3672 27.2126 32.6069 29.9093 29.8534C30.7991 28.9492 30.9839 28.7369 31.5726 27.956C33.3248 25.6203 34.4678 22.7709 34.9127 19.6612C35.0291 18.8529 35.0291 16.1542 34.9127 15.3459C34.6184 13.2705 34.0777 11.5033 33.2221 9.77033C32.3049 7.93464 31.3741 6.62637 29.9162 5.1537C27.2126 2.41386 23.8313 0.708313 19.9436 0.132946C19.1017 0.009655 16.6719 -0.0451431 15.8368 0.0439034ZM21.3125 9.90048C25.5288 10.0512 26.4254 10.2156 27.2194 10.9553C27.8765 11.5718 28.1503 12.3869 28.3351 14.3185C28.4514 15.5103 28.4583 19.3187 28.3419 20.5516C28.164 22.4147 27.9928 23.1202 27.5822 23.6682C27.0141 24.4216 26.4528 24.7093 25.1934 24.8669C21.819 25.2915 12.0312 25.2504 9.42343 24.7984C8.08188 24.5655 7.23315 23.7709 6.95252 22.4695C6.62398 20.9763 6.48025 17.8323 6.63083 15.4144C6.80194 12.5992 7.00728 11.7978 7.73281 11.0307C8.35567 10.3731 8.9443 10.1882 10.9087 10.0375C13.318 9.84568 18.1366 9.78403 21.3125 9.90048Z" fill="#3392FF"/>
<path d="M15.3234 17.5037V20.7915L15.652 20.6066C19.8614 18.1955 20.9976 17.5311 20.9976 17.5037C20.9976 17.4763 19.8614 16.8119 15.652 14.4008L15.3234 14.2159V17.5037Z" fill="#3392FF"/>
</svg>
