<svg width="40" height="40" viewBox="0 0 40 40" fill="none" xmlns="http://www.w3.org/2000/svg">
<path d="M18.0992 0.0501785C11.8413 0.699913 6.35779 4.10514 3.02545 9.4126C-1.69928 16.9276 -0.815352 26.8693 5.15314 33.4058C8.46202 37.0302 12.5922 39.1986 17.5517 39.9031C18.4747 40.0362 21.5489 40.0284 22.5189 39.9031C27.0481 39.2769 31.1001 37.265 34.1821 34.1181C35.199 33.0848 35.4102 32.8421 36.0829 31.9497C38.0855 29.2804 39.3918 26.0239 39.9003 22.4699C40.0332 21.5462 40.0332 18.4619 39.9003 17.5382C39.5639 15.1663 38.9459 13.1466 37.9681 11.1661C36.9199 9.06816 35.8561 7.57299 34.1899 5.88995C31.1001 2.75871 27.2358 0.809505 22.7927 0.151943C21.8305 0.0110359 19.0536 -0.0515862 18.0992 0.0501785ZM24.3571 11.3148C29.1757 11.4871 30.2005 11.6749 31.1079 12.5204C31.8588 13.2249 32.1717 14.1564 32.3829 16.364C32.5159 17.7261 32.5237 22.0785 32.3908 23.4876C32.1874 25.6168 31.9918 26.4231 31.5225 27.0493C30.8732 27.9104 30.2318 28.2392 28.7924 28.4193C24.936 28.9046 13.75 28.8576 10.7696 28.341C9.23644 28.0748 8.26646 27.1668 7.94574 25.6794C7.57027 23.9729 7.406 20.3798 7.57809 17.6165C7.77365 14.3991 8.00832 13.4832 8.83749 12.6065C9.54933 11.855 10.2221 11.6436 12.4671 11.4714C15.2206 11.2522 20.7276 11.1818 24.3571 11.3148Z" fill="#333333" fill-opacity="0.75"/>
<path d="M17.5125 20.0042V23.7617L17.8879 23.5504C22.6987 20.7949 23.9972 20.0355 23.9972 20.0042C23.9972 19.9729 22.6987 19.2136 17.8879 16.4581L17.5125 16.2467V20.0042Z" fill="#333333" fill-opacity="0.75"/>
</svg>
